<svg width="365" height="124" viewBox="0 0 365 124" fill="none"
    xmlns="http://www.w3.org/2000/svg">
    <path d="M59.6843 48.7754C59.4352 46.4441 58.3852 44.6291 56.5346 43.3301C54.7016 42.031 52.3172 41.3815 49.3809 41.3815C47.3167 41.3815 45.5461 41.693 44.069 42.3158C42.592 42.9387 41.4621 43.7839 40.6791 44.8517C39.8961 45.9192 39.4957 47.1382 39.4779 48.5085C39.4779 49.6473 39.7359 50.6349 40.252 51.4713C40.7858 52.3078 41.5065 53.0196 42.4141 53.6067C43.3216 54.1763 44.3271 54.6567 45.4304 55.0482C46.5337 55.4397 47.646 55.769 48.767 56.0358L53.8919 57.317C55.9563 57.7975 57.9405 58.447 59.8445 59.2657C61.7663 60.0842 63.4836 61.1163 64.9961 62.362C66.5266 63.6076 67.7366 65.1114 68.6265 66.873C69.5162 68.6348 69.9611 70.699 69.9611 73.0657C69.9611 76.2689 69.1424 79.0895 67.5052 81.5274C65.8681 83.9476 63.5014 85.8428 60.4049 87.2129C57.3264 88.5653 53.5983 89.2416 49.2207 89.2416C44.9677 89.2416 41.2752 88.5833 38.1433 87.2664C35.0291 85.9495 32.5912 84.0275 30.8294 81.5007C29.0855 78.9738 28.1424 75.8953 28 72.265H37.7429C37.8852 74.1692 38.4725 75.7529 39.5046 77.0164C40.5367 78.2798 41.8802 79.2229 43.5352 79.8458C45.2079 80.4686 47.0764 80.7801 49.1407 80.7801C51.2939 80.7801 53.1801 80.4596 54.7995 79.819C56.4367 79.1607 57.7179 78.2531 58.6433 77.0963C59.5687 75.9218 60.0401 74.5517 60.0581 72.9857C60.0401 71.5622 59.6221 70.3877 58.8034 69.4623C57.9849 68.5192 56.837 67.7362 55.3602 67.1133C53.9009 66.4727 52.1925 65.9032 50.235 65.405L44.0157 63.8035C39.5135 62.6468 35.9544 60.8939 33.3386 58.5449C30.7405 56.1782 29.4414 53.0373 29.4414 49.1224C29.4414 45.9015 30.3134 43.0811 32.0573 40.6609C33.819 38.2407 36.2125 36.3632 39.2377 35.0286C42.2628 33.6762 45.6885 33 49.5143 33C53.3937 33 56.7925 33.6762 59.7111 35.0286C62.6472 36.3632 64.9517 38.2228 66.6243 40.6074C68.2972 42.9742 69.1602 45.6969 69.2136 48.7754H59.6843ZM90.1607 89.2416C87.5627 89.2416 85.2227 88.7789 83.1406 87.8535C81.0764 86.9104 79.4392 85.5225 78.229 83.6895C77.0368 81.8567 76.4407 79.5967 76.4407 76.9097C76.4407 74.5962 76.8677 72.6832 77.7219 71.1707C78.5761 69.6579 79.7418 68.448 81.2186 67.5403C82.6956 66.6329 84.3595 65.9478 86.2103 65.4851C88.0788 65.0047 90.0095 64.6577 92.0025 64.4441C94.4049 64.195 96.3534 63.9724 97.8482 63.7768C99.343 63.5632 100.428 63.2429 101.105 62.8159C101.799 62.3709 102.146 61.6859 102.146 60.7605V60.6003C102.146 58.5894 101.55 57.0324 100.357 55.9291C99.1651 54.8259 97.4479 54.274 95.2057 54.274C92.839 54.274 90.9615 54.7902 89.5736 55.8222C88.2032 56.8543 87.2779 58.0733 86.7974 59.4791L77.7753 58.1979C78.4871 55.7066 79.6616 53.6247 81.2988 51.9518C82.9359 50.2614 84.9379 48.9979 87.3046 48.1615C89.6713 47.3073 92.2873 46.8803 95.1522 46.8803C97.1276 46.8803 99.0939 47.1117 101.051 47.5742C103.009 48.0368 104.797 48.8021 106.417 49.8699C108.036 50.9197 109.335 52.3523 110.314 54.1673C111.31 55.9824 111.809 58.2514 111.809 60.9741V88.4141H102.52V82.7821H102.199C101.612 83.9208 100.784 84.9886 99.7167 85.985C98.6669 86.9638 97.341 87.7558 95.7396 88.3607C94.1558 88.948 92.2961 89.2416 90.1607 89.2416ZM92.6698 82.1413C94.6095 82.1413 96.2912 81.7587 97.7148 80.9935C99.1383 80.2105 100.233 79.1784 100.998 77.8973C101.781 76.6159 102.173 75.219 102.173 73.7065V68.875C101.87 69.1243 101.354 69.3556 100.624 69.569C99.9126 69.7826 99.1116 69.9695 98.2219 70.1296C97.3323 70.2898 96.4513 70.4322 95.5794 70.5566C94.7075 70.6813 93.9512 70.788 93.3104 70.8771C91.8691 71.0727 90.5789 71.393 89.4399 71.838C88.3012 72.2827 87.4025 72.9056 86.7442 73.7065C86.0856 74.4895 85.7564 75.5038 85.7564 76.7495C85.7564 78.5289 86.4059 79.8725 87.7051 80.7801C89.004 81.6876 90.6591 82.1413 92.6698 82.1413ZM133.323 89.2416C130.725 89.2416 128.385 88.7789 126.303 87.8535C124.238 86.9104 122.601 85.5225 121.391 83.6895C120.199 81.8567 119.603 79.5967 119.603 76.9097C119.603 74.5962 120.03 72.6832 120.884 71.1707C121.738 69.6579 122.904 68.448 124.381 67.5403C125.858 66.6329 127.522 65.9478 129.372 65.4851C131.241 65.0047 133.172 64.6577 135.165 64.4441C137.567 64.195 139.516 63.9724 141.01 63.7768C142.505 63.5632 143.591 63.2429 144.267 62.8159C144.961 62.3709 145.308 61.6859 145.308 60.7605V60.6003C145.308 58.5894 144.712 57.0324 143.52 55.9291C142.327 54.8259 140.61 54.274 138.368 54.274C136.001 54.274 134.124 54.7902 132.736 55.8222C131.365 56.8543 130.44 58.0733 129.96 59.4791L120.938 58.1979C121.649 55.7066 122.824 53.6247 124.461 51.9518C126.098 50.2614 128.1 48.9979 130.467 48.1615C132.834 47.3073 135.45 46.8803 138.314 46.8803C140.29 46.8803 142.256 47.1117 144.214 47.5742C146.171 48.0368 147.959 48.8021 149.579 49.8699C151.198 50.9197 152.497 52.3523 153.476 54.1673C154.473 55.9824 154.971 58.2514 154.971 60.9741V88.4141H145.682V82.7821H145.361C144.774 83.9208 143.947 84.9886 142.879 85.985C141.829 86.9638 140.503 87.7558 138.902 88.3607C137.318 88.948 135.458 89.2416 133.323 89.2416ZM135.832 82.1413C137.772 82.1413 139.453 81.7587 140.877 80.9935C142.301 80.2105 143.395 79.1784 144.16 77.8973C144.943 76.6159 145.335 75.219 145.335 73.7065V68.875C145.032 69.1243 144.516 69.3556 143.787 69.569C143.075 69.7826 142.274 69.9695 141.384 70.1296C140.494 70.2898 139.614 70.4322 138.742 70.5566C137.869 70.6813 137.113 70.788 136.473 70.8771C135.031 71.0727 133.741 71.393 132.602 71.838C131.463 72.2827 130.565 72.9056 129.906 73.7065C129.248 74.4895 128.919 75.5038 128.919 76.7495C128.919 78.5289 129.568 79.8725 130.867 80.7801C132.166 81.6876 133.821 82.1413 135.832 82.1413ZM179.902 89.1349C176.681 89.1349 173.798 88.3074 171.253 86.6523C168.709 84.9974 166.698 82.5952 165.221 79.4453C163.744 76.2956 163.005 72.4696 163.005 67.9675C163.005 63.412 163.753 59.5683 165.248 56.4363C166.76 53.2864 168.797 50.9109 171.36 49.3092C173.923 47.6898 176.779 46.8803 179.928 46.8803C182.331 46.8803 184.306 47.2896 185.854 48.108C187.403 48.9088 188.63 49.8786 189.538 51.0176C190.445 52.1387 191.148 53.1975 191.647 54.194H192.047V33.7474H201.736V88.4141H192.234V81.9544H191.647C191.148 82.951 190.428 84.0098 189.484 85.131C188.541 86.2343 187.296 87.1774 185.747 87.9604C184.199 88.7434 182.251 89.1349 179.902 89.1349ZM182.598 81.2071C184.644 81.2071 186.388 80.6555 187.83 79.5522C189.271 78.4309 190.365 76.874 191.113 74.881C191.86 72.8878 192.234 70.5656 192.234 67.9141C192.234 65.2626 191.86 62.9581 191.113 61.0006C190.383 59.0431 189.298 57.5216 187.856 56.4363C186.433 55.3508 184.68 54.8079 182.598 54.8079C180.445 54.8079 178.647 55.3685 177.206 56.4896C175.764 57.6108 174.679 59.1588 173.949 61.1342C173.22 63.1095 172.855 65.3695 172.855 67.9141C172.855 70.4766 173.22 72.7634 173.949 74.7741C174.697 76.7673 175.791 78.342 177.232 79.4987C178.692 80.6377 180.48 81.2071 182.598 81.2071ZM221.696 64.3906V88.4141H212.033V33.7474H221.482V54.3809H221.963C222.924 52.0675 224.41 50.2434 226.421 48.9088C228.449 47.5564 231.03 46.8803 234.161 46.8803C237.009 46.8803 239.491 47.4764 241.609 48.6687C243.726 49.8609 245.363 51.6048 246.52 53.9005C247.695 56.196 248.282 58.9987 248.282 62.3087V88.4141H238.619V63.8035C238.619 61.0451 237.907 58.9009 236.485 57.3705C235.077 55.8222 233.103 55.0482 230.558 55.0482C228.85 55.0482 227.319 55.422 225.967 56.1693C224.632 56.8988 223.582 57.9578 222.817 59.3457C222.07 60.7338 221.696 62.4154 221.696 64.3906ZM269.93 89.2416C267.332 89.2416 264.992 88.7789 262.91 87.8535C260.845 86.9104 259.208 85.5225 257.997 83.6895C256.805 81.8567 256.21 79.5967 256.21 76.9097C256.21 74.5962 256.636 72.6832 257.492 71.1707C258.346 69.6579 259.511 68.448 260.987 67.5403C262.465 66.6329 264.129 65.9478 265.979 65.4851C267.848 65.0047 269.779 64.6577 271.771 64.4441C274.175 64.195 276.123 63.9724 277.618 63.7768C279.113 63.5632 280.198 63.2429 280.873 62.8159C281.568 62.3709 281.915 61.6859 281.915 60.7605V60.6003C281.915 58.5894 281.32 57.0324 280.125 55.9291C278.933 54.8259 277.217 54.274 274.974 54.274C272.609 54.274 270.729 54.7902 269.343 55.8222C267.971 56.8543 267.046 58.0733 266.566 59.4791L257.544 58.1979C258.256 55.7066 259.432 53.6247 261.068 51.9518C262.705 50.2614 264.708 48.9979 267.073 48.1615C269.441 47.3073 272.055 46.8803 274.922 46.8803C276.897 46.8803 278.862 47.1117 280.821 47.5742C282.777 48.0368 284.566 48.8021 286.185 49.8699C287.805 50.9197 289.104 52.3523 290.083 54.1673C291.079 55.9824 291.578 58.2514 291.578 60.9741V88.4141H282.288V82.7821H281.969C281.38 83.9208 280.553 84.9886 279.486 85.985C278.436 86.9638 277.11 87.7558 275.509 88.3607C273.924 88.948 272.066 89.2416 269.93 89.2416ZM272.44 82.1413C274.379 82.1413 276.06 81.7587 277.484 80.9935C278.908 80.2105 280.002 79.1784 280.766 77.8973C281.549 76.6159 281.942 75.219 281.942 73.7065V68.875C281.639 69.1243 281.123 69.3556 280.393 69.569C279.681 69.7826 278.881 69.9695 277.991 70.1296C277.102 70.2898 276.221 70.4322 275.348 70.5566C274.477 70.6813 273.719 70.788 273.078 70.8771C271.638 71.0727 270.347 71.393 269.209 71.838C268.069 72.2827 267.172 72.9056 266.514 73.7065C265.854 74.4895 265.526 75.5038 265.526 76.7495C265.526 78.5289 266.176 79.8725 267.474 80.7801C268.773 81.6876 270.429 82.1413 272.44 82.1413ZM310.956 64.3906V88.4141H301.293V47.414H310.53V54.3809H311.011C311.952 52.0854 313.458 50.2614 315.521 48.9088C317.602 47.5564 320.175 46.8803 323.236 46.8803C326.065 46.8803 328.529 47.4852 330.629 48.6954C332.746 49.9054 334.383 51.6582 335.54 53.9537C336.715 56.2494 337.294 59.0344 337.275 62.3087V88.4141H327.612V63.8035C327.612 61.063 326.9 58.9187 325.478 57.3705C324.071 55.8222 322.123 55.0482 319.632 55.0482C317.941 55.0482 316.437 55.422 315.12 56.1693C313.821 56.8988 312.798 57.9578 312.05 59.3457C311.322 60.7338 310.956 62.4154 310.956 64.3906Z" fill="#EF9D4B"/>
</svg>
