<svg width="365" height="123.19" viewBox="0 0 153 59" fill="none"
    xmlns="http://www.w3.org/2000/svg">
    <path d="M16.8111 16.0156C16.6918 14.8991 16.1889 14.0298 15.3026 13.4077C14.4247 12.7855 13.2827 12.4744 11.8764 12.4744C10.8878 12.4744 10.0398 12.6236 9.33239 12.9219C8.625 13.2202 8.08381 13.625 7.70881 14.1364C7.33381 14.6477 7.14205 15.2315 7.13352 15.8878C7.13352 16.4332 7.2571 16.9062 7.50426 17.3068C7.75994 17.7074 8.10511 18.0483 8.53977 18.3295C8.97443 18.6023 9.45597 18.8324 9.98438 19.0199C10.5128 19.2074 11.0455 19.3651 11.5824 19.4929L14.0369 20.1065C15.0256 20.3366 15.9759 20.6477 16.8878 21.0398C17.8082 21.4318 18.6307 21.9261 19.3551 22.5227C20.0881 23.1193 20.6676 23.8395 21.0938 24.6832C21.5199 25.527 21.733 26.5156 21.733 27.6491C21.733 29.1832 21.3409 30.5341 20.5568 31.7017C19.7727 32.8608 18.6392 33.7685 17.1562 34.4247C15.6818 35.0724 13.8963 35.3963 11.7997 35.3963C9.76278 35.3963 7.99432 35.081 6.49432 34.4503C5.00284 33.8196 3.83523 32.8991 2.99148 31.6889C2.15625 30.4787 1.70455 29.0043 1.63636 27.2656H6.30256C6.37074 28.1776 6.65199 28.9361 7.14631 29.5412C7.64063 30.1463 8.28409 30.598 9.0767 30.8963C9.87784 31.1946 10.7727 31.3438 11.7614 31.3438C12.7926 31.3438 13.696 31.1903 14.4716 30.8835C15.2557 30.5682 15.8693 30.1335 16.3125 29.5795C16.7557 29.017 16.9815 28.3608 16.9901 27.6108C16.9815 26.929 16.7813 26.3665 16.3892 25.9233C15.9972 25.4716 15.4474 25.0966 14.7401 24.7983C14.0412 24.4915 13.223 24.2187 12.2855 23.9801L9.30682 23.2131C7.15057 22.6591 5.44602 21.8196 4.19318 20.6946C2.94886 19.5611 2.3267 18.0568 2.3267 16.1818C2.3267 14.6392 2.74432 13.2884 3.57955 12.1293C4.4233 10.9702 5.5696 10.071 7.01847 9.43182C8.46733 8.78409 10.108 8.46023 11.9403 8.46023C13.7983 8.46023 15.4261 8.78409 16.8239 9.43182C18.2301 10.071 19.3338 10.9616 20.1349 12.1037C20.9361 13.2372 21.3494 14.5412 21.375 16.0156H16.8111ZM31.4073 35.3963C30.163 35.3963 29.0423 35.1747 28.0451 34.7315C27.0565 34.2798 26.2724 33.6151 25.6928 32.7372C25.1218 31.8594 24.8363 30.777 24.8363 29.4901C24.8363 28.3821 25.0408 27.4659 25.4499 26.7415C25.859 26.017 26.4173 25.4375 27.1246 25.0028C27.832 24.5682 28.6289 24.2401 29.5153 24.0185C30.4102 23.7884 31.3349 23.6222 32.2894 23.5199C33.44 23.4006 34.3732 23.294 35.0891 23.2003C35.805 23.098 36.3249 22.9446 36.6488 22.7401C36.9812 22.527 37.1474 22.1989 37.1474 21.7557V21.679C37.1474 20.7159 36.8619 19.9702 36.2908 19.4418C35.7198 18.9134 34.8974 18.6491 33.8235 18.6491C32.69 18.6491 31.7908 18.8963 31.1261 19.3906C30.4698 19.8849 30.0266 20.4687 29.7965 21.142L25.4755 20.5284C25.8164 19.3352 26.3789 18.3381 27.163 17.5369C27.9471 16.7273 28.9059 16.1222 30.0394 15.7216C31.1729 15.3125 32.4258 15.108 33.7979 15.108C34.744 15.108 35.6857 15.2188 36.6232 15.4403C37.5607 15.6619 38.4173 16.0284 39.1928 16.5398C39.9684 17.0426 40.5906 17.7287 41.0593 18.598C41.5366 19.4673 41.7752 20.554 41.7752 21.858V35H37.3264V32.3026H37.1729C36.8917 32.848 36.4954 33.3594 35.984 33.8366C35.4812 34.3054 34.8462 34.6847 34.0792 34.9744C33.3207 35.2557 32.43 35.3963 31.4073 35.3963ZM32.609 31.9957C33.538 31.9957 34.3434 31.8125 35.0252 31.446C35.707 31.071 36.2312 30.5767 36.5977 29.9631C36.9727 29.3494 37.1602 28.6804 37.1602 27.956V25.642C37.0153 25.7614 36.7681 25.8722 36.4187 25.9744C36.0778 26.0767 35.6942 26.1662 35.2681 26.2429C34.842 26.3196 34.4201 26.3878 34.0025 26.4474C33.5849 26.5071 33.2227 26.5582 32.9158 26.6009C32.2255 26.6946 31.6076 26.848 31.0621 27.0611C30.5167 27.2741 30.0863 27.5724 29.771 27.956C29.4556 28.331 29.2979 28.8168 29.2979 29.4134C29.2979 30.2656 29.609 30.9091 30.2312 31.3438C30.8533 31.7784 31.646 31.9957 32.609 31.9957ZM52.0792 35.3963C50.8349 35.3963 49.7141 35.1747 48.717 34.7315C47.7283 34.2798 46.9442 33.6151 46.3647 32.7372C45.7937 31.8594 45.5082 30.777 45.5082 29.4901C45.5082 28.3821 45.7127 27.4659 46.1218 26.7415C46.5309 26.017 47.0891 25.4375 47.7965 25.0028C48.5039 24.5682 49.3008 24.2401 50.1871 24.0185C51.082 23.7884 52.0067 23.6222 52.9613 23.5199C54.1119 23.4006 55.0451 23.294 55.761 23.2003C56.4769 23.098 56.9968 22.9446 57.3207 22.7401C57.6531 22.527 57.8192 22.1989 57.8192 21.7557V21.679C57.8192 20.7159 57.5337 19.9702 56.9627 19.4418C56.3917 18.9134 55.5692 18.6491 54.4954 18.6491C53.3619 18.6491 52.4627 18.8963 51.7979 19.3906C51.1417 19.8849 50.6985 20.4687 50.4684 21.142L46.1474 20.5284C46.4883 19.3352 47.0508 18.3381 47.8349 17.5369C48.619 16.7273 49.5778 16.1222 50.7113 15.7216C51.8448 15.3125 53.0977 15.108 54.4698 15.108C55.4158 15.108 56.3576 15.2188 57.2951 15.4403C58.2326 15.6619 59.0891 16.0284 59.8647 16.5398C60.6403 17.0426 61.2624 17.7287 61.7312 18.598C62.2085 19.4673 62.4471 20.554 62.4471 21.858V35H57.9982V32.3026H57.8448C57.5636 32.848 57.1673 33.3594 56.6559 33.8366C56.1531 34.3054 55.5181 34.6847 54.7511 34.9744C53.9925 35.2557 53.1019 35.3963 52.0792 35.3963ZM53.2809 31.9957C54.2099 31.9957 55.0153 31.8125 55.6971 31.446C56.3789 31.071 56.9031 30.5767 57.2695 29.9631C57.6445 29.3494 57.832 28.6804 57.832 27.956V25.642C57.6871 25.7614 57.44 25.8722 57.0906 25.9744C56.7496 26.0767 56.3661 26.1662 55.94 26.2429C55.5138 26.3196 55.092 26.3878 54.6744 26.4474C54.2567 26.5071 53.8945 26.5582 53.5877 26.6009C52.8974 26.6946 52.2795 26.848 51.734 27.0611C51.1886 27.2741 50.7582 27.5724 50.4428 27.956C50.1275 28.331 49.9698 28.8168 49.9698 29.4134C49.9698 30.2656 50.2809 30.9091 50.9031 31.3438C51.5252 31.7784 52.3178 31.9957 53.2809 31.9957ZM74.3874 35.3452C72.8448 35.3452 71.4641 34.9489 70.2454 34.1562C69.0266 33.3636 68.0636 32.2131 67.3562 30.7045C66.6488 29.196 66.2951 27.3636 66.2951 25.2074C66.2951 23.0256 66.6531 21.1847 67.369 19.6847C68.0934 18.1761 69.0692 17.0384 70.2965 16.2713C71.5238 15.4957 72.8917 15.108 74.4002 15.108C75.5508 15.108 76.4968 15.304 77.2383 15.696C77.9798 16.0795 78.5678 16.544 79.0025 17.0895C79.4371 17.6264 79.7738 18.1335 80.0124 18.6108H80.2042V8.81818H84.8448V35H80.2937V31.9062H80.0124C79.7738 32.3835 79.4286 32.8906 78.9769 33.4276C78.5252 33.956 77.9286 34.4077 77.1871 34.7827C76.4457 35.1577 75.5124 35.3452 74.3874 35.3452ZM75.6786 31.5483C76.6587 31.5483 77.494 31.2841 78.1843 30.7557C78.8746 30.2187 79.3988 29.473 79.7567 28.5185C80.1147 27.5639 80.2937 26.4517 80.2937 25.1818C80.2937 23.9119 80.1147 22.8082 79.7567 21.8707C79.4073 20.9332 78.8874 20.2045 78.1971 19.6847C77.5153 19.1648 76.6758 18.9048 75.6786 18.9048C74.6474 18.9048 73.7866 19.1733 73.0962 19.7102C72.4059 20.2472 71.886 20.9886 71.5366 21.9347C71.1871 22.8807 71.0124 23.9631 71.0124 25.1818C71.0124 26.4091 71.1871 27.5043 71.5366 28.4673C71.8945 29.4219 72.4187 30.1761 73.109 30.7301C73.8079 31.2756 74.6644 31.5483 75.6786 31.5483ZM94.4041 23.4943V35H89.7763V8.81818H94.3018V18.7003H94.532C94.9922 17.5923 95.7038 16.7187 96.6669 16.0795C97.6385 15.4318 98.8743 15.108 100.374 15.108C101.738 15.108 102.927 15.3935 103.941 15.9645C104.955 16.5355 105.739 17.3707 106.293 18.4702C106.856 19.5696 107.137 20.9119 107.137 22.4972V35H102.509V23.2131C102.509 21.892 102.168 20.8651 101.487 20.1321C100.813 19.3906 99.8672 19.0199 98.6484 19.0199C97.8303 19.0199 97.0973 19.1989 96.4496 19.5568C95.8104 19.9062 95.3075 20.4134 94.9411 21.0781C94.5831 21.7429 94.4041 22.5483 94.4041 23.4943ZM117.505 35.3963C116.261 35.3963 115.14 35.1747 114.143 34.7315C113.154 34.2798 112.37 33.6151 111.79 32.7372C111.219 31.8594 110.934 30.777 110.934 29.4901C110.934 28.3821 111.138 27.4659 111.548 26.7415C111.957 26.017 112.515 25.4375 113.222 25.0028C113.93 24.5682 114.727 24.2401 115.613 24.0185C116.508 23.7884 117.433 23.6222 118.387 23.5199C119.538 23.4006 120.471 23.294 121.187 23.2003C121.903 23.098 122.423 22.9446 122.746 22.7401C123.079 22.527 123.245 22.1989 123.245 21.7557V21.679C123.245 20.7159 122.96 19.9702 122.388 19.4418C121.817 18.9134 120.995 18.6491 119.921 18.6491C118.788 18.6491 117.888 18.8963 117.224 19.3906C116.567 19.8849 116.124 20.4687 115.894 21.142L111.573 20.5284C111.914 19.3352 112.477 18.3381 113.261 17.5369C114.045 16.7273 115.004 16.1222 116.137 15.7216C117.271 15.3125 118.523 15.108 119.896 15.108C120.842 15.108 121.783 15.2188 122.721 15.4403C123.658 15.6619 124.515 16.0284 125.29 16.5398C126.066 17.0426 126.688 17.7287 127.157 18.598C127.634 19.4673 127.873 20.554 127.873 21.858V35H123.424V32.3026H123.271C122.989 32.848 122.593 33.3594 122.082 33.8366C121.579 34.3054 120.944 34.6847 120.177 34.9744C119.418 35.2557 118.528 35.3963 117.505 35.3963ZM118.707 31.9957C119.636 31.9957 120.441 31.8125 121.123 31.446C121.805 31.071 122.329 30.5767 122.695 29.9631C123.07 29.3494 123.258 28.6804 123.258 27.956V25.642C123.113 25.7614 122.866 25.8722 122.516 25.9744C122.175 26.0767 121.792 26.1662 121.366 26.2429C120.94 26.3196 120.518 26.3878 120.1 26.4474C119.683 26.5071 119.32 26.5582 119.013 26.6009C118.323 26.6946 117.705 26.848 117.16 27.0611C116.614 27.2741 116.184 27.5724 115.869 27.956C115.553 28.331 115.396 28.8168 115.396 29.4134C115.396 30.2656 115.707 30.9091 116.329 31.3438C116.951 31.7784 117.744 31.9957 118.707 31.9957ZM137.154 23.4943V35H132.526V15.3636H136.95V18.7003H137.18C137.631 17.6009 138.352 16.7273 139.34 16.0795C140.337 15.4318 141.569 15.108 143.035 15.108C144.39 15.108 145.57 15.3977 146.576 15.9773C147.59 16.5568 148.374 17.3963 148.928 18.4957C149.491 19.5952 149.768 20.929 149.759 22.4972V35H145.131V23.2131C145.131 21.9006 144.79 20.8736 144.109 20.1321C143.435 19.3906 142.502 19.0199 141.309 19.0199C140.499 19.0199 139.779 19.1989 139.148 19.5568C138.526 19.9062 138.036 20.4134 137.678 21.0781C137.329 21.7429 137.154 22.5483 137.154 23.4943Z" fill="#EF9D4B"/>
    <path d="M25.8565 56V49.4545H27.0881V50.4943H27.1562C27.2756 50.142 27.4858 49.8651 27.7869 49.6634C28.0909 49.4588 28.4347 49.3565 28.8182 49.3565C28.8977 49.3565 28.9915 49.3594 29.0994 49.3651C29.2102 49.3707 29.2969 49.3778 29.3594 49.3864V50.6051C29.3082 50.5909 29.2173 50.5753 29.0866 50.5582C28.956 50.5384 28.8253 50.5284 28.6946 50.5284C28.3935 50.5284 28.125 50.5923 27.8892 50.7202C27.6563 50.8452 27.4716 51.0199 27.3352 51.2443C27.1989 51.4659 27.1307 51.7187 27.1307 52.0028V56H25.8565ZM33.3874 46.8636L30.5749 57.3125H29.4371L32.2496 46.8636H33.3874ZM37.3974 56H34.5721V47.2727H37.4869C38.342 47.2727 39.0763 47.4474 39.69 47.7969C40.3036 48.1435 40.7738 48.642 41.1005 49.2926C41.43 49.9403 41.5948 50.7173 41.5948 51.6236C41.5948 52.5327 41.4286 53.3139 41.0962 53.9673C40.7667 54.6207 40.2894 55.1236 39.6644 55.4759C39.0394 55.8253 38.2837 56 37.3974 56ZM35.8888 54.8494H37.3249C37.9897 54.8494 38.5423 54.7244 38.9826 54.4744C39.4229 54.2216 39.7525 53.8565 39.9712 53.3793C40.19 52.8991 40.2994 52.3139 40.2994 51.6236C40.2994 50.9389 40.19 50.358 39.9712 49.8807C39.7553 49.4034 39.4329 49.0412 39.0039 48.794C38.5749 48.5469 38.0423 48.4233 37.4059 48.4233H35.8888V54.8494ZM45.951 56.1321C45.3061 56.1321 44.7507 55.9943 44.2848 55.7188C43.8217 55.4403 43.4638 55.0497 43.2109 54.5469C42.9609 54.0412 42.8359 53.4489 42.8359 52.7699C42.8359 52.0994 42.9609 51.5085 43.2109 50.9972C43.4638 50.4858 43.8161 50.0866 44.2678 49.7997C44.7223 49.5128 45.2536 49.3693 45.8615 49.3693C46.2308 49.3693 46.5888 49.4304 46.9354 49.5526C47.282 49.6747 47.593 49.8665 47.8686 50.1278C48.1442 50.3892 48.3615 50.7287 48.5206 51.1463C48.6797 51.5611 48.7592 52.0653 48.7592 52.6591V53.1108H43.5561V52.1562H47.5107C47.5107 51.821 47.4425 51.5241 47.3061 51.2656C47.1697 51.0043 46.978 50.7983 46.7308 50.6477C46.4865 50.4972 46.1996 50.4219 45.87 50.4219C45.5121 50.4219 45.1996 50.5099 44.9325 50.6861C44.6683 50.8594 44.4638 51.0866 44.3189 51.3679C44.1768 51.6463 44.1058 51.9489 44.1058 52.2756V53.0213C44.1058 53.4588 44.1825 53.831 44.3359 54.1378C44.4922 54.4446 44.7095 54.679 44.9879 54.8409C45.2663 55 45.5916 55.0795 45.9638 55.0795C46.2053 55.0795 46.4254 55.0455 46.6243 54.9773C46.8232 54.9062 46.995 54.8011 47.1399 54.6619C47.2848 54.5227 47.3956 54.3509 47.4723 54.1463L48.6783 54.3636C48.5817 54.7187 48.4084 55.0298 48.1584 55.2969C47.9112 55.5611 47.6001 55.767 47.2251 55.9148C46.853 56.0597 46.4283 56.1321 45.951 56.1321ZM55.5849 49.4545L53.2113 56H51.8477L49.4698 49.4545H50.8377L52.4954 54.4915H52.5636L54.217 49.4545H55.5849ZM59.3807 56.1321C58.7358 56.1321 58.1804 55.9943 57.7145 55.7188C57.2514 55.4403 56.8935 55.0497 56.6406 54.5469C56.3906 54.0412 56.2656 53.4489 56.2656 52.7699C56.2656 52.0994 56.3906 51.5085 56.6406 50.9972C56.8935 50.4858 57.2457 50.0866 57.6974 49.7997C58.152 49.5128 58.6832 49.3693 59.2912 49.3693C59.6605 49.3693 60.0185 49.4304 60.3651 49.5526C60.7116 49.6747 61.0227 49.8665 61.2983 50.1278C61.5739 50.3892 61.7912 50.7287 61.9503 51.1463C62.1094 51.5611 62.1889 52.0653 62.1889 52.6591V53.1108H56.9858V52.1562H60.9403C60.9403 51.821 60.8722 51.5241 60.7358 51.2656C60.5994 51.0043 60.4077 50.7983 60.1605 50.6477C59.9162 50.4972 59.6293 50.4219 59.2997 50.4219C58.9418 50.4219 58.6293 50.5099 58.3622 50.6861C58.098 50.8594 57.8935 51.0866 57.7486 51.3679C57.6065 51.6463 57.5355 51.9489 57.5355 52.2756V53.0213C57.5355 53.4588 57.6122 53.831 57.7656 54.1378C57.9219 54.4446 58.1392 54.679 58.4176 54.8409C58.696 55 59.0213 55.0795 59.3935 55.0795C59.6349 55.0795 59.8551 55.0455 60.054 54.9773C60.2528 54.9062 60.4247 54.8011 60.5696 54.6619C60.7145 54.5227 60.8253 54.3509 60.902 54.1463L62.108 54.3636C62.0114 54.7187 61.8381 55.0298 61.5881 55.2969C61.3409 55.5611 61.0298 55.767 60.6548 55.9148C60.2827 56.0597 59.858 56.1321 59.3807 56.1321ZM64.8768 47.2727V56H63.6026V47.2727H64.8768ZM69.348 56.1321C68.7344 56.1321 68.1989 55.9915 67.7415 55.7102C67.2841 55.429 66.929 55.0355 66.6761 54.5298C66.4233 54.0241 66.2969 53.4332 66.2969 52.7571C66.2969 52.0781 66.4233 51.4844 66.6761 50.9759C66.929 50.4673 67.2841 50.0724 67.7415 49.7912C68.1989 49.5099 68.7344 49.3693 69.348 49.3693C69.9616 49.3693 70.4972 49.5099 70.9545 49.7912C71.4119 50.0724 71.767 50.4673 72.0199 50.9759C72.2727 51.4844 72.3991 52.0781 72.3991 52.7571C72.3991 53.4332 72.2727 54.0241 72.0199 54.5298C71.767 55.0355 71.4119 55.429 70.9545 55.7102C70.4972 55.9915 69.9616 56.1321 69.348 56.1321ZM69.3523 55.0625C69.75 55.0625 70.0795 54.9574 70.3409 54.7472C70.6023 54.5369 70.7955 54.2571 70.9205 53.9077C71.0483 53.5582 71.1122 53.1733 71.1122 52.7528C71.1122 52.3352 71.0483 51.9517 70.9205 51.6023C70.7955 51.25 70.6023 50.9673 70.3409 50.7543C70.0795 50.5412 69.75 50.4347 69.3523 50.4347C68.9517 50.4347 68.6193 50.5412 68.3551 50.7543C68.0938 50.9673 67.8991 51.25 67.7713 51.6023C67.6463 51.9517 67.5838 52.3352 67.5838 52.7528C67.5838 53.1733 67.6463 53.5582 67.7713 53.9077C67.8991 54.2571 68.0938 54.5369 68.3551 54.7472C68.6193 54.9574 68.9517 55.0625 69.3523 55.0625ZM73.8214 58.4545V49.4545H75.0657V50.5156H75.1722C75.2461 50.3793 75.3526 50.2216 75.4918 50.0426C75.631 49.8636 75.8242 49.7074 76.0714 49.5739C76.3185 49.4375 76.6452 49.3693 77.0515 49.3693C77.5799 49.3693 78.0515 49.5028 78.4663 49.7699C78.881 50.0369 79.2063 50.4219 79.4421 50.9247C79.6808 51.4276 79.8001 52.0327 79.8001 52.7401C79.8001 53.4474 79.6822 54.054 79.4464 54.5597C79.2106 55.0625 78.8867 55.4503 78.4748 55.723C78.0629 55.9929 77.5927 56.1278 77.0643 56.1278C76.6665 56.1278 76.3413 56.0611 76.0884 55.9276C75.8384 55.794 75.6424 55.6378 75.5004 55.4588C75.3583 55.2798 75.2489 55.1207 75.1722 54.9815H75.0955V58.4545H73.8214ZM75.07 52.7273C75.07 53.1875 75.1367 53.5909 75.2702 53.9375C75.4038 54.2841 75.5969 54.5554 75.8498 54.7514C76.1026 54.9446 76.4123 55.0412 76.7788 55.0412C77.1594 55.0412 77.4776 54.9403 77.7333 54.7386C77.989 54.5341 78.1822 54.2571 78.3129 53.9077C78.4464 53.5582 78.5131 53.1648 78.5131 52.7273C78.5131 52.2955 78.4478 51.9077 78.3171 51.5639C78.1893 51.2202 77.9961 50.9489 77.7376 50.75C77.4819 50.5511 77.1623 50.4517 76.7788 50.4517C76.4094 50.4517 76.0969 50.5469 75.8413 50.7372C75.5884 50.9276 75.3967 51.1932 75.266 51.5341C75.1353 51.875 75.07 52.2727 75.07 52.7273ZM84.0487 56.1321C83.4038 56.1321 82.8484 55.9943 82.3825 55.7188C81.9194 55.4403 81.5614 55.0497 81.3086 54.5469C81.0586 54.0412 80.9336 53.4489 80.9336 52.7699C80.9336 52.0994 81.0586 51.5085 81.3086 50.9972C81.5614 50.4858 81.9137 50.0866 82.3654 49.7997C82.82 49.5128 83.3512 49.3693 83.9592 49.3693C84.3285 49.3693 84.6864 49.4304 85.033 49.5526C85.3796 49.6747 85.6907 49.8665 85.9663 50.1278C86.2418 50.3892 86.4592 50.7287 86.6183 51.1463C86.7773 51.5611 86.8569 52.0653 86.8569 52.6591V53.1108H81.6538V52.1562H85.6083C85.6083 51.821 85.5401 51.5241 85.4038 51.2656C85.2674 51.0043 85.0756 50.7983 84.8285 50.6477C84.5842 50.4972 84.2972 50.4219 83.9677 50.4219C83.6097 50.4219 83.2972 50.5099 83.0302 50.6861C82.766 50.8594 82.5614 51.0866 82.4165 51.3679C82.2745 51.6463 82.2035 51.9489 82.2035 52.2756V53.0213C82.2035 53.4588 82.2802 53.831 82.4336 54.1378C82.5898 54.4446 82.8072 54.679 83.0856 54.8409C83.364 55 83.6893 55.0795 84.0614 55.0795C84.3029 55.0795 84.5231 55.0455 84.7219 54.9773C84.9208 54.9062 85.0927 54.8011 85.2376 54.6619C85.3825 54.5227 85.4933 54.3509 85.57 54.1463L86.7759 54.3636C86.6793 54.7187 86.506 55.0298 86.256 55.2969C86.0089 55.5611 85.6978 55.767 85.3228 55.9148C84.9506 56.0597 84.5259 56.1321 84.0487 56.1321ZM88.2706 56V49.4545H89.5021V50.4943H89.5703C89.6896 50.142 89.8999 49.8651 90.201 49.6634C90.505 49.4588 90.8487 49.3565 91.2322 49.3565C91.3118 49.3565 91.4055 49.3594 91.5135 49.3651C91.6243 49.3707 91.7109 49.3778 91.7734 49.3864V50.6051C91.7223 50.5909 91.6314 50.5753 91.5007 50.5582C91.37 50.5384 91.2393 50.5284 91.1087 50.5284C90.8075 50.5284 90.5391 50.5923 90.3033 50.7202C90.0703 50.8452 89.8857 51.0199 89.7493 51.2443C89.6129 51.4659 89.5447 51.7187 89.5447 52.0028V56H88.2706ZM97.7809 51.0526L96.6261 51.2571C96.5778 51.1094 96.5011 50.9687 96.396 50.8352C96.2937 50.7017 96.1545 50.5923 95.9783 50.5071C95.8022 50.4219 95.582 50.3793 95.3178 50.3793C94.957 50.3793 94.6559 50.4602 94.4144 50.6222C94.1729 50.7812 94.0522 50.9872 94.0522 51.2401C94.0522 51.4588 94.1332 51.6349 94.2951 51.7685C94.457 51.902 94.7184 52.0114 95.0792 52.0966L96.119 52.3352C96.7212 52.4744 97.1701 52.6889 97.4656 52.9787C97.761 53.2685 97.9087 53.6449 97.9087 54.108C97.9087 54.5 97.7951 54.8494 97.5678 55.1562C97.3434 55.4602 97.0295 55.6989 96.6261 55.8722C96.2255 56.0455 95.761 56.1321 95.2326 56.1321C94.4996 56.1321 93.9016 55.9759 93.4386 55.6634C92.9755 55.348 92.6914 54.9006 92.5863 54.321L93.8178 54.1335C93.8945 54.4545 94.0522 54.6974 94.2908 54.8622C94.5295 55.0241 94.8406 55.1051 95.2241 55.1051C95.6417 55.1051 95.9755 55.0185 96.2255 54.8452C96.4755 54.669 96.6005 54.4545 96.6005 54.2017C96.6005 53.9972 96.5238 53.8253 96.3704 53.6861C96.2198 53.5469 95.9883 53.4418 95.6758 53.3707L94.5678 53.1278C93.957 52.9886 93.5053 52.767 93.2127 52.4631C92.9229 52.1591 92.7781 51.7741 92.7781 51.3082C92.7781 50.9219 92.886 50.5838 93.1019 50.294C93.3178 50.0043 93.6161 49.7784 93.9968 49.6165C94.3775 49.4517 94.8136 49.3693 95.305 49.3693C96.0124 49.3693 96.5692 49.5227 96.9755 49.8295C97.3817 50.1335 97.6502 50.5412 97.7809 51.0526ZM100.729 47.2727V56H99.4119V47.2727H100.729ZM103.818 52.1136V56H102.544V49.4545H103.767V50.5199H103.848C103.999 50.1733 104.234 49.8949 104.555 49.6847C104.879 49.4744 105.287 49.3693 105.778 49.3693C106.224 49.3693 106.615 49.4631 106.95 49.6506C107.286 49.8352 107.545 50.1108 107.73 50.4773C107.915 50.8437 108.007 51.2969 108.007 51.8366V56H106.733V51.9901C106.733 51.5156 106.609 51.1449 106.362 50.8778C106.115 50.608 105.776 50.473 105.344 50.473C105.048 50.473 104.786 50.5369 104.555 50.6648C104.328 50.7926 104.148 50.9801 104.014 51.2273C103.884 51.4716 103.818 51.767 103.818 52.1136ZM112.166 56.1278C111.638 56.1278 111.166 55.9929 110.751 55.723C110.339 55.4503 110.016 55.0625 109.78 54.5597C109.547 54.054 109.43 53.4474 109.43 52.7401C109.43 52.0327 109.548 51.4276 109.784 50.9247C110.023 50.4219 110.349 50.0369 110.764 49.7699C111.179 49.5028 111.649 49.3693 112.175 49.3693C112.581 49.3693 112.908 49.4375 113.155 49.5739C113.405 49.7074 113.598 49.8636 113.734 50.0426C113.874 50.2216 113.982 50.3793 114.058 50.5156H114.135V47.2727H115.409V56H114.165V54.9815H114.058C113.982 55.1207 113.871 55.2798 113.726 55.4588C113.584 55.6378 113.388 55.794 113.138 55.9276C112.888 56.0611 112.564 56.1278 112.166 56.1278ZM112.447 55.0412C112.814 55.0412 113.124 54.9446 113.376 54.7514C113.632 54.5554 113.825 54.2841 113.956 53.9375C114.089 53.5909 114.156 53.1875 114.156 52.7273C114.156 52.2727 114.091 51.875 113.96 51.5341C113.83 51.1932 113.638 50.9276 113.385 50.7372C113.132 50.5469 112.82 50.4517 112.447 50.4517C112.064 50.4517 111.744 50.5511 111.489 50.75C111.233 50.9489 111.04 51.2202 110.909 51.5639C110.781 51.9077 110.717 52.2955 110.717 52.7273C110.717 53.1648 110.783 53.5582 110.913 53.9077C111.044 54.2571 111.237 54.5341 111.493 54.7386C111.751 54.9403 112.07 55.0412 112.447 55.0412ZM117.228 56V49.4545H118.502V56H117.228ZM117.871 48.4446C117.65 48.4446 117.459 48.3707 117.3 48.223C117.144 48.0724 117.066 47.8935 117.066 47.6861C117.066 47.4759 117.144 47.2969 117.3 47.1491C117.459 46.9986 117.65 46.9233 117.871 46.9233C118.093 46.9233 118.282 46.9986 118.438 47.1491C118.597 47.2969 118.676 47.4759 118.676 47.6861C118.676 47.8935 118.597 48.0724 118.438 48.223C118.282 48.3707 118.093 48.4446 117.871 48.4446ZM122.121 56.1449C121.706 56.1449 121.331 56.0682 120.996 55.9148C120.661 55.7585 120.395 55.5327 120.199 55.2372C120.006 54.9418 119.909 54.5795 119.909 54.1506C119.909 53.7812 119.98 53.4773 120.122 53.2386C120.264 53 120.456 52.8111 120.697 52.6719C120.939 52.5327 121.209 52.4276 121.507 52.3565C121.805 52.2855 122.109 52.2315 122.419 52.1946C122.811 52.1491 123.129 52.1122 123.374 52.0838C123.618 52.0526 123.795 52.0028 123.906 51.9347C124.017 51.8665 124.072 51.7557 124.072 51.6023V51.5724C124.072 51.2003 123.967 50.9119 123.757 50.7074C123.55 50.5028 123.24 50.4006 122.828 50.4006C122.399 50.4006 122.061 50.4957 121.814 50.6861C121.57 50.8736 121.401 51.0824 121.307 51.3125L120.109 51.0398C120.251 50.642 120.459 50.321 120.732 50.0767C121.007 49.8295 121.324 49.6506 121.682 49.5398C122.04 49.4261 122.416 49.3693 122.811 49.3693C123.072 49.3693 123.349 49.4006 123.642 49.4631C123.938 49.5227 124.213 49.6335 124.469 49.7955C124.727 49.9574 124.939 50.1889 125.104 50.4901C125.268 50.7884 125.351 51.1761 125.351 51.6534V56H124.107V55.1051H124.055C123.973 55.2699 123.849 55.4318 123.685 55.5909C123.52 55.75 123.308 55.8821 123.05 55.9872C122.791 56.0923 122.482 56.1449 122.121 56.1449ZM122.398 55.1222C122.75 55.1222 123.051 55.0526 123.301 54.9134C123.554 54.7741 123.746 54.5923 123.876 54.3679C124.01 54.1406 124.077 53.8977 124.077 53.6392V52.7955C124.031 52.8409 123.943 52.8835 123.812 52.9233C123.685 52.9602 123.538 52.9929 123.374 53.0213C123.209 53.0469 123.048 53.071 122.892 53.0938C122.736 53.1136 122.605 53.1307 122.5 53.1449C122.253 53.1761 122.027 53.2287 121.822 53.3026C121.621 53.3764 121.459 53.483 121.337 53.6222C121.217 53.7585 121.158 53.9403 121.158 54.1676C121.158 54.483 121.274 54.7216 121.507 54.8835C121.74 55.0426 122.037 55.1222 122.398 55.1222Z" fill="#02057B"/>
</svg>
