<svg width="750" height="401" viewBox="0 0 750 401" fill="none" xmlns="http://www.w3.org/2000/svg">
<g clip-path="url(#clip0_401_108)">
<path d="M666.95 94.27L657.38 140.62L651.22 134.61L640.74 142.09L632.73 132.14L614.77 145.2L599.42 119.53L582.3 129.56L575.51 120.2L553.77 132.45L547.23 118.44L562.47 44.63L644.17 61.5L666.95 94.27Z" fill="#EBEBEB"/>
<path d="M644.17 61.5L666.95 94.27L638.61 88.42L644.17 61.5Z" fill="#DBDBDB"/>
<path d="M655.34 149.88L641.31 217.88L531.26 195.16L545.19 127.71L551.73 141.71L573.48 129.46L580.26 138.82L597.39 128.8L612.73 154.47L630.7 141.41L638.7 151.35L649.19 143.88L655.34 149.88Z" fill="#EBEBEB"/>
<path d="M497.83 141.91L385.68 148.85L376.77 4.88998L460.05 -0.27002L490.62 25.38L497.83 141.91Z" fill="#EBEBEB"/>
<path d="M460.05 -0.27002L490.62 25.38L461.74 27.17L460.05 -0.27002Z" fill="#DBDBDB"/>
<path d="M429 96.6L428.56 93.35C427.43 86.62 429.27 79.09 435.12 71.22C440.4 64.22 443.26 59.22 442.94 53.54C442.58 47.14 438.33 43.1 430.42 43.42C425.899 43.6548 421.557 45.2591 417.97 48.02L414.52 40.29C418.52 37.04 425.52 34.64 432.17 34.29C446.6 33.49 453.62 42.03 454.17 51.56C454.65 60.09 450.23 66.5 444.61 73.99C439.45 80.82 437.76 86.45 438.49 92.82L438.8 96.08L429 96.6ZM427.22 114.31C426.96 109.67 429.91 106.23 434.3 105.99C438.69 105.75 441.89 108.83 442.15 113.48C442.39 117.87 439.7 121.41 435.06 121.67C430.63 121.92 427.43 118.7 427.18 114.31H427.22Z" fill="#DBDBDB"/>
<path d="M148.48 72.11L137.2 67L135.63 70.45C135.398 70.943 135.036 71.3636 134.584 71.6667C134.131 71.9697 133.604 72.1437 133.06 72.17C132.44 72.1903 131.822 72.2504 131.21 72.35C130.673 72.4298 130.124 72.3622 129.622 72.1544C129.12 71.9465 128.684 71.6063 128.36 71.17L126.15 68.08L116.08 75.3L118.29 78.39C118.597 78.836 118.778 79.3569 118.813 79.8974C118.849 80.4379 118.737 80.9779 118.49 81.46C118.205 82.0099 117.948 82.574 117.72 83.15C117.522 83.6579 117.189 84.1022 116.757 84.4352C116.326 84.7682 115.812 84.9773 115.27 85.04L111.5 85.41L112.71 97.74L116.5 97.36C117.044 97.3166 117.589 97.4221 118.077 97.6653C118.565 97.9084 118.977 98.28 119.27 98.74C119.43 99 119.6 99.25 119.78 99.5C119.96 99.75 120.14 99.99 120.33 100.23C120.675 100.65 120.897 101.157 120.971 101.696C121.045 102.234 120.969 102.782 120.75 103.28L119.17 106.76L130.46 111.88L132.03 108.41C132.264 107.917 132.628 107.498 133.082 107.197C133.537 106.895 134.065 106.724 134.61 106.7C135.223 106.675 135.834 106.615 136.44 106.52C136.977 106.44 137.526 106.508 138.028 106.716C138.53 106.923 138.966 107.264 139.29 107.7L141.5 110.79L151.58 103.57L149.37 100.48C149.053 100.038 148.866 99.5162 148.831 98.9736C148.796 98.431 148.913 97.8893 149.17 97.41C149.449 96.8632 149.699 96.3025 149.92 95.73C150.112 95.2184 150.443 94.7705 150.876 94.4366C151.309 94.1028 151.826 93.8961 152.37 93.84L156.16 93.46L154.94 81.13L151.15 81.5C150.61 81.5474 150.067 81.4446 149.582 81.2028C149.096 80.961 148.687 80.5897 148.4 80.13C148.23 79.87 148.06 79.62 147.88 79.37C147.7 79.12 147.52 78.87 147.33 78.64C146.987 78.215 146.767 77.7044 146.693 77.1634C146.619 76.6224 146.694 76.0715 146.91 75.57L148.48 72.11ZM142.08 83.52C143.249 85.1519 143.909 87.0939 143.974 89.1004C144.04 91.107 143.509 93.0879 142.449 94.7927C141.388 96.4975 139.846 97.8496 138.018 98.6779C136.189 99.5063 134.156 99.7737 132.175 99.4464C130.194 99.1191 128.355 98.2117 126.89 96.839C125.425 95.4663 124.4 93.69 123.944 91.7348C123.489 89.7795 123.623 87.7331 124.331 85.8543C125.039 83.9756 126.288 82.3489 127.92 81.18C130.108 79.613 132.829 78.9792 135.485 79.418C138.14 79.8568 140.512 81.3323 142.08 83.52Z" fill="#EBEBEB"/>
<path d="M658.38 235.71L650.86 240.05L652.19 242.35C652.389 242.68 652.488 243.06 652.475 243.445C652.463 243.83 652.339 244.203 652.12 244.52C651.89 244.88 651.67 245.25 651.47 245.64C651.306 245.985 651.046 246.276 650.722 246.478C650.397 246.68 650.022 246.785 649.64 246.78H647V255.47H649.66C650.042 255.465 650.417 255.57 650.742 255.772C651.066 255.974 651.326 256.265 651.49 256.61C651.69 257 651.91 257.37 652.14 257.73C652.359 258.047 652.483 258.42 652.495 258.805C652.507 259.19 652.409 259.57 652.21 259.9L650.88 262.2L658.4 266.54L659.74 264.23C659.934 263.902 660.216 263.635 660.553 263.459C660.89 263.282 661.27 263.203 661.65 263.23H662.93C663.31 263.204 663.689 263.284 664.026 263.46C664.363 263.637 664.645 263.903 664.84 264.23L666.18 266.55L673.69 262.21L672.36 259.9C672.171 259.568 672.078 259.19 672.092 258.809C672.106 258.427 672.227 258.057 672.44 257.74C672.67 257.38 672.89 257 673.09 256.62C673.254 256.275 673.514 255.984 673.838 255.782C674.163 255.58 674.538 255.475 674.92 255.48H677.58V246.79H674.9C674.518 246.795 674.143 246.69 673.818 246.488C673.494 246.286 673.234 245.995 673.07 245.65C672.87 245.27 672.65 244.89 672.42 244.53C672.207 244.213 672.086 243.843 672.072 243.461C672.058 243.08 672.151 242.702 672.34 242.37L673.67 240.06L666.16 235.72L664.82 238C664.626 238.328 664.344 238.595 664.007 238.771C663.67 238.948 663.29 239.027 662.91 239H662.27H661.63C661.249 239.026 660.868 238.946 660.53 238.769C660.191 238.593 659.907 238.327 659.71 238L658.38 235.71ZM662.27 244.01C663.679 244.008 665.057 244.424 666.229 245.206C667.402 245.987 668.316 247.099 668.856 248.401C669.396 249.702 669.538 251.134 669.264 252.517C668.989 253.899 668.311 255.168 667.315 256.165C666.318 257.161 665.049 257.839 663.667 258.114C662.284 258.388 660.852 258.246 659.551 257.706C658.249 257.166 657.137 256.252 656.356 255.079C655.574 253.907 655.158 252.529 655.16 251.12C655.159 250.185 655.342 249.26 655.698 248.396C656.055 247.532 656.579 246.747 657.239 246.086C657.899 245.425 658.684 244.9 659.547 244.542C660.41 244.184 661.335 244 662.27 244V244.01Z" fill="#EBEBEB"/>
<path d="M171.3 35.16L164.41 40.44L166 42.55C166.237 42.8506 166.383 43.213 166.42 43.5942C166.457 43.9753 166.384 44.3591 166.21 44.7C166.019 45.0892 165.852 45.49 165.71 45.9C165.587 46.2611 165.365 46.5807 165.07 46.8228C164.775 47.0648 164.418 47.2197 164.04 47.27L161.4 47.61L162.52 56.22L165.16 55.88C165.544 55.8264 165.936 55.8825 166.29 56.0417C166.643 56.2009 166.945 56.4568 167.16 56.78C167.401 57.1278 167.661 57.4617 167.94 57.78C168.198 58.0633 168.368 58.4146 168.432 58.7922C168.496 59.1698 168.45 59.5577 168.3 59.91L167.3 62.37L175.3 65.7L176.3 63.24C176.449 62.8871 176.693 62.5829 177.006 62.362C177.319 62.1411 177.688 62.0122 178.07 61.99L178.71 61.92L179.34 61.82C179.71 61.7502 180.092 61.7833 180.445 61.9155C180.797 62.0477 181.107 62.2741 181.34 62.57L182.97 64.7L189.86 59.42L188.25 57.31C188.017 57.0051 187.875 56.6415 187.837 56.2599C187.8 55.8783 187.87 55.4939 188.04 55.15C188.229 54.7633 188.396 54.366 188.54 53.96C188.663 53.5988 188.885 53.2792 189.18 53.0372C189.475 52.7951 189.832 52.6402 190.21 52.59L192.85 52.25L191.73 43.64L189.09 43.98C188.707 44.0346 188.316 43.98 187.962 43.8226C187.608 43.6652 187.306 43.4113 187.09 43.09C186.84 42.73 186.58 42.39 186.3 42.09C186.067 41.8006 185.916 41.4538 185.863 41.0861C185.811 40.7184 185.858 40.3432 186 40L187 37.54L179 34.21L178 36.67C177.849 37.0215 177.604 37.3244 177.292 37.5451C176.979 37.7657 176.612 37.8955 176.23 37.92L175.59 37.98L175 38C174.63 38.0697 174.248 38.0367 173.895 37.9044C173.542 37.7722 173.233 37.5458 173 37.25L171.3 35.16ZM176.23 42.89C177.623 42.7109 179.038 42.9484 180.296 43.5725C181.554 44.1966 182.599 45.1793 183.299 46.3967C184 47.6141 184.324 49.0116 184.231 50.4129C184.138 51.8143 183.632 53.1567 182.777 54.2708C181.922 55.385 180.756 56.2209 179.426 56.6732C178.096 57.1254 176.663 57.1738 175.306 56.8122C173.949 56.4505 172.729 55.6951 171.801 54.6411C170.872 53.5871 170.277 52.2819 170.09 50.89C169.965 49.9611 170.025 49.0167 170.266 48.1111C170.508 47.2055 170.926 46.3565 171.496 45.613C172.067 44.8695 172.779 44.2462 173.591 43.7789C174.404 43.3116 175.3 43.0095 176.23 42.89Z" fill="#EBEBEB"/>
<path d="M119.82 260.78C120.196 251.113 120.062 241.433 119.42 231.78C117.989 211.847 114.949 192.063 110.33 172.62C107.79 161.68 104.67 150.92 101.41 140.17C101.31 139.84 100.79 139.93 100.88 140.27C110.95 178.17 119.21 217.27 118.64 256.67C118.48 267.67 117.2 278.52 116.16 289.48C116.16 289.77 116.61 289.89 116.68 289.59C118.75 280.18 119.43 270.36 119.82 260.78Z" fill="#EBEBEB"/>
<path d="M100.88 140.24C100.88 140.24 85.6401 178.94 89.0501 188C92.4601 197.06 99.5001 199 99.5001 199C99.5001 199 90.1701 212.32 96.6901 224.81C103.21 237.3 117.69 236.71 118.69 250.87C118.66 250.94 119.46 191.73 100.88 140.24Z" fill="#EBEBEB"/>
<path d="M117 226.49C117.025 226.426 117.025 226.354 117 226.29C115 199.869 110.042 173.756 102.22 148.44C102.22 148.37 102.07 148.39 102.09 148.44C105.11 159.773 107.777 171.153 110.09 182.58C108.041 180.639 105.538 179.243 102.81 178.52C102.81 178.52 102.73 178.58 102.81 178.6C105.676 179.65 108.253 181.364 110.33 183.6C110.77 185.85 111.21 188.09 111.62 190.34C108.21 186.53 103.49 184.64 98.7601 182.84C98.7494 182.845 98.7403 182.852 98.7339 182.862C98.7275 182.872 98.7241 182.883 98.7241 182.895C98.7241 182.907 98.7275 182.918 98.7339 182.928C98.7403 182.938 98.7494 182.945 98.7601 182.95C103.69 184.95 108.59 187.53 111.93 191.78C113.09 198.2 114.11 204.643 114.99 211.11C112.528 208.53 109.37 206.721 105.9 205.9C105.79 205.9 105.73 206.03 105.84 206.06C109.405 207.11 112.587 209.174 115 212H115.06C115.36 214.267 115.647 216.543 115.92 218.83C114.015 217.218 111.865 215.922 109.55 214.99C109.49 214.99 109.45 215.06 109.55 215.08C111.912 216.103 114.075 217.535 115.94 219.31C115.94 219.31 115.99 219.31 116.02 219.31C116.27 221.48 116.52 223.65 116.74 225.82C113.306 221.669 108.85 218.484 103.81 216.58C103.789 216.58 103.769 216.588 103.754 216.603C103.739 216.618 103.73 216.639 103.73 216.66C103.73 216.681 103.739 216.702 103.754 216.717C103.769 216.732 103.789 216.74 103.81 216.74C108.787 218.933 113.158 222.299 116.55 226.55C116.587 226.597 116.638 226.631 116.695 226.649C116.752 226.667 116.813 226.667 116.87 226.65C117.2 229.98 117.5 233.31 117.74 236.65C117.74 236.7 117.82 236.7 117.82 236.65C117.56 233.297 117.287 229.91 117 226.49Z" fill="white"/>
<path d="M104.75 174.71C101.99 172.992 98.8373 172.008 95.5903 171.85C95.5744 171.85 95.5591 171.856 95.5479 171.868C95.5366 171.879 95.5303 171.894 95.5303 171.91C95.5303 171.926 95.5366 171.941 95.5479 171.952C95.5591 171.964 95.5744 171.97 95.5903 171.97C98.7296 172.565 101.776 173.574 104.65 174.97C104.77 175 104.86 174.79 104.75 174.71Z" fill="white"/>
<path d="M106.6 215.68C104.479 214.462 102.143 213.665 99.7201 213.33C99.6401 213.33 99.6301 213.44 99.7201 213.46C102.086 213.935 104.375 214.736 106.52 215.84C106.61 215.89 106.69 215.73 106.6 215.68Z" fill="white"/>
<path d="M159.9 188.67C153.453 193.126 147.532 198.3 142.25 204.09C136.803 210.221 132.601 217.354 129.88 225.09C124.088 241.208 120.973 258.166 120.66 275.29C120.466 284.773 121.375 294.247 123.37 303.52C123.386 303.587 123.428 303.646 123.486 303.684C123.544 303.721 123.614 303.735 123.683 303.722C123.751 303.709 123.811 303.671 123.852 303.615C123.892 303.558 123.909 303.489 123.9 303.42C121.418 287.056 121.512 270.405 124.18 254.07C126.8 238.07 130.91 220.65 141.09 207.64C146.63 200.55 153.54 194.98 160.37 189.22C160.73 188.9 160.27 188.41 159.9 188.67Z" fill="#EBEBEB"/>
<path d="M122.9 263.75C126.57 257.814 130.882 252.301 135.76 247.31C143.39 239.68 149.81 234.26 150.81 229.22C151.81 224.18 143.17 220.46 143.17 220.46C143.17 220.46 153.72 222.36 156.61 217.93C159.5 213.5 160.89 187.84 160.89 187.84C160.89 187.84 141.69 201.55 132.74 220.77C123.79 239.99 122.9 263.75 122.9 263.75Z" fill="#EBEBEB"/>
<path d="M154 211.91C152.736 211.722 151.454 211.678 150.18 211.78C150.03 211.78 150.04 212.04 150.18 212.05C151.44 212.05 152.71 211.99 153.97 212.05C153.984 212.046 153.998 212.039 154.008 212.028C154.018 212.017 154.025 212.004 154.028 211.989C154.031 211.975 154.031 211.96 154.025 211.946C154.02 211.932 154.012 211.919 154 211.91Z" fill="white"/>
<path d="M140.21 236.8C138.183 236.841 136.178 237.241 134.29 237.98C134.29 237.98 134.29 238.08 134.29 238.07C136.29 237.6 138.22 237.41 140.2 237.07C140.226 237.059 140.248 237.04 140.264 237.017C140.28 236.994 140.289 236.966 140.29 236.938C140.291 236.91 140.284 236.882 140.27 236.858C140.256 236.833 140.235 236.813 140.21 236.8Z" fill="white"/>
<path d="M136.07 228.2C135.228 228.193 134.388 228.267 133.56 228.42C133.545 228.426 133.531 228.436 133.522 228.449C133.513 228.463 133.508 228.479 133.508 228.495C133.508 228.511 133.513 228.527 133.522 228.541C133.531 228.554 133.545 228.564 133.56 228.57C134.398 228.618 135.239 228.582 136.07 228.46C136.104 228.46 136.138 228.446 136.162 228.422C136.186 228.398 136.2 228.364 136.2 228.33C136.2 228.295 136.186 228.262 136.162 228.238C136.138 228.214 136.104 228.2 136.07 228.2Z" fill="white"/>
<path d="M66.6099 215.89C72.8591 218.009 78.8475 220.83 84.4599 224.3C90.2833 228 95.3333 232.796 99.3299 238.42C107.739 250.125 114.177 263.127 118.39 276.91C120.739 284.542 122.189 292.422 122.71 300.39C122.699 300.442 122.671 300.488 122.63 300.521C122.589 300.554 122.538 300.572 122.485 300.572C122.432 300.572 122.381 300.554 122.34 300.521C122.299 300.488 122.271 300.442 122.26 300.39C120.495 286.574 116.574 273.121 110.64 260.52C104.81 248.17 97.4599 235.03 86.2199 226.85C80.0999 222.4 73.2199 219.48 66.3599 216.4C65.9999 216.28 66.2499 215.77 66.6099 215.89Z" fill="#EBEBEB"/>
<path d="M113.91 268.1C109.566 264.147 104.8 260.683 99.7001 257.77C91.7601 253.36 85.3101 250.46 83.3401 246.61C81.3701 242.76 87.5001 237.76 87.5001 237.76C87.5001 237.76 79.4001 241.76 76.0401 238.81C72.6801 235.86 65.6201 215.46 65.6201 215.46C65.6201 215.46 84.3301 222.11 96.0001 235.6C107.67 249.09 113.91 268.1 113.91 268.1Z" fill="#EBEBEB"/>
<path d="M98.3799 249.32C96.5404 249.192 94.6934 249.419 92.9399 249.99C92.9399 249.99 92.9399 250.08 92.9399 250.07C94.7288 249.763 96.5362 249.576 98.3499 249.51C98.4799 249.51 98.5099 249.33 98.3799 249.32Z" fill="white"/>
<path d="M82.06 227.92C81.2208 227.851 80.3763 227.899 79.55 228.06C79.46 228.06 79.49 228.22 79.55 228.21C80.38 228.12 81.19 228.15 82.01 228.13C82.0354 228.131 82.0605 228.123 82.0808 228.108C82.1011 228.092 82.1154 228.07 82.1213 228.046C82.1272 228.021 82.1243 227.995 82.1132 227.972C82.102 227.949 82.0832 227.931 82.06 227.92Z" fill="white"/>
<path d="M138.04 326.18H95.8101L101.83 282.07L103.37 270.76H130.48L132.02 282.07L138.04 326.18Z" fill="#DBDBDB"/>
<path d="M132.02 282.07H101.83L103.37 270.76H130.48L132.02 282.07Z" fill="#C7C7C7"/>
<path d="M134.35 266.84H99.4902V276.42H134.35V266.84Z" fill="#DBDBDB"/>
<path d="M68.96 326.18L144.97 325.94L220.98 325.85L373 325.68L525.02 325.85L601.03 325.94L677.04 326.18L601.03 326.43L525.02 326.51L373 326.68L220.98 326.51L144.97 326.42L68.96 326.18Z" fill="#263238"/>
<path d="M375 400.71C533.362 400.71 661.74 386.643 661.74 369.29C661.74 351.937 533.362 337.87 375 337.87C216.638 337.87 88.2598 351.937 88.2598 369.29C88.2598 386.643 216.638 400.71 375 400.71Z" fill="#EBEBEB"/>
<path d="M308.25 364.09C305.92 364.88 239.11 365.09 236.55 363.51C235.55 362.91 234.98 353.18 234.55 341.4C234.46 338.86 234.39 336.23 234.33 333.57L229 297.93L273.67 297.64L277.88 333.29L277.71 341.13C277.71 341.13 303.33 352.48 305.95 354.54C308.57 356.6 310.58 363.3 308.25 364.09Z" fill="#EB9481"/>
<path d="M308.25 364.09C305.92 364.88 239.11 365.09 236.55 363.51C235.37 362.77 234.73 348.56 234.37 333.57L277.83 333.29L277.66 341.13C277.66 341.13 303.28 352.48 305.9 354.54C308.52 356.6 310.58 363.3 308.25 364.09Z" fill="white"/>
<path d="M308.25 364.09C305.92 364.88 239.11 365.09 236.55 363.51C235.55 362.91 234.98 353.18 234.55 341.4L277.62 341.13C277.62 341.13 303.24 352.48 305.86 354.54C308.48 356.6 310.58 363.3 308.25 364.09Z" fill="#A6A6A6"/>
<path d="M307.28 361.42C296.08 361.18 250.88 361.29 239.79 361.91C239.7 361.91 239.7 361.97 239.79 361.98C250.89 362.45 296.09 361.98 307.28 361.6C307.52 361.59 307.52 361.42 307.28 361.42Z" fill="#263238"/>
<path d="M301.59 352.15C300.345 352.122 299.107 352.353 297.956 352.828C296.804 353.303 295.764 354.012 294.9 354.91C293.327 356.513 292.438 358.664 292.42 360.91C292.42 360.98 292.54 360.98 292.55 360.91C292.922 358.698 294 356.665 295.622 355.115C297.244 353.565 299.323 352.581 301.55 352.31C301.572 352.315 301.594 352.312 301.613 352.301C301.632 352.289 301.645 352.271 301.65 352.25C301.656 352.229 301.652 352.206 301.641 352.188C301.63 352.169 301.612 352.155 301.59 352.15Z" fill="#263238"/>
<path d="M282 342.23C277.52 342.18 272.33 343.78 269.55 347.46C269.45 347.6 269.65 347.75 269.78 347.68C273.695 345.614 277.818 343.971 282.08 342.78C282.146 342.762 282.203 342.72 282.241 342.663C282.278 342.606 282.294 342.537 282.284 342.47C282.274 342.402 282.24 342.34 282.187 342.296C282.135 342.252 282.069 342.229 282 342.23Z" fill="#263238"/>
<path d="M285.48 343.56C280.99 343.56 275.8 345.12 273.03 348.79C272.92 348.94 273.12 349.09 273.26 349.02C277.169 346.947 281.289 345.3 285.55 344.11C285.615 344.092 285.672 344.051 285.709 343.995C285.747 343.939 285.763 343.872 285.754 343.805C285.745 343.738 285.713 343.676 285.663 343.631C285.613 343.586 285.548 343.561 285.48 343.56Z" fill="#263238"/>
<path d="M288.94 344.9C284.46 344.9 279.27 346.45 276.49 350.13C276.39 350.27 276.59 350.42 276.72 350.35C280.635 348.284 284.758 346.641 289.02 345.45C289.086 345.432 289.143 345.39 289.181 345.333C289.218 345.276 289.233 345.207 289.224 345.14C289.214 345.072 289.18 345.01 289.127 344.966C289.075 344.922 289.009 344.899 288.94 344.9Z" fill="#263238"/>
<path d="M292.41 346.24C287.92 346.19 282.73 347.79 279.96 351.47C279.85 351.61 280.06 351.76 280.19 351.69C284.103 349.622 288.227 347.98 292.49 346.79C292.556 346.772 292.613 346.73 292.65 346.673C292.688 346.616 292.703 346.547 292.693 346.48C292.683 346.412 292.649 346.35 292.597 346.306C292.545 346.262 292.478 346.239 292.41 346.24Z" fill="#263238"/>
<path d="M242.61 351.26C237.61 351.26 237.61 359.11 242.61 359.08C247.61 359.05 247.65 351.23 242.61 351.26Z" fill="#263238"/>
<path d="M286.81 330.25C284.54 328.37 281.68 330.25 280.29 332.18C277.976 335.591 276.597 339.55 276.29 343.66C276.29 343.75 276.36 343.79 276.43 343.79C276.448 343.875 276.486 343.954 276.54 344.021C276.595 344.088 276.665 344.141 276.744 344.175C276.824 344.209 276.91 344.224 276.996 344.218C277.083 344.212 277.166 344.185 277.24 344.14C280.42 341.93 284.1 339.95 286.51 336.82C287.88 335 289 332 286.81 330.25ZM281.35 339.79C279.81 340.92 278.22 341.97 276.72 343.16C277.52 340.92 278.21 338.66 279.23 336.5C279.701 335.464 280.243 334.462 280.85 333.5C281.85 332.01 286.21 328.25 286.67 333.12C286.93 335.79 283.18 338.45 281.35 339.79Z" fill="#263238"/>
<path d="M265.13 345.36C269.03 345.94 273.06 344.82 276.89 344.21C276.973 344.188 277.05 344.148 277.115 344.091C277.179 344.034 277.23 343.963 277.262 343.883C277.294 343.803 277.307 343.717 277.299 343.632C277.292 343.546 277.265 343.463 277.22 343.39C277.235 343.379 277.246 343.364 277.254 343.348C277.263 343.332 277.267 343.313 277.267 343.295C277.267 343.277 277.263 343.259 277.254 343.242C277.246 343.226 277.235 343.211 277.22 343.2C274.143 340.456 270.397 338.569 266.36 337.73C264 337.28 260.66 337.93 260.36 340.86C260 343.62 262.85 345 265.13 345.36ZM262.41 342.82C259.41 338.98 265.14 338.65 266.86 339.05C267.976 339.329 269.072 339.683 270.14 340.11C272.327 341.017 274.467 342.035 276.55 343.16C274.65 343.35 272.78 343.69 270.89 343.95C268.63 344.25 264.09 344.93 262.41 342.82Z" fill="#263238"/>
<path d="M163.32 133.2C163.32 133.2 215.19 221.44 216.58 227.64C218.71 237.16 230 331.17 230 331.17L284 330.17C284 330.17 274.7 247.28 265.89 219.97C259.55 200.3 213.77 135.06 213.77 135.06L163.32 133.2Z" fill="#37474F"/>
<path d="M279.09 321.93C271.34 321.87 243.87 321.56 233.55 322.52C233.47 322.52 233.48 322.66 233.55 322.67C237.1 323.18 271.33 322.39 279.08 322.14C279.097 322.146 279.114 322.148 279.131 322.146C279.148 322.144 279.165 322.138 279.179 322.128C279.193 322.119 279.205 322.106 279.214 322.091C279.222 322.076 279.227 322.059 279.228 322.042C279.229 322.025 279.225 322.007 279.218 321.992C279.211 321.976 279.201 321.962 279.187 321.951C279.174 321.94 279.158 321.933 279.141 321.929C279.125 321.925 279.107 321.926 279.09 321.93Z" fill="#263238"/>
<path d="M172.17 141.3C175.57 146.63 179.17 151.85 182.63 157.14C186.09 162.43 189.57 167.72 193 173C199.84 183.667 206.507 194.403 213 205.21C216.169 210.219 218.88 215.504 221.1 221C223.127 226.497 224.65 232.167 225.65 237.94C226.71 243.73 227.41 249.58 228.06 255.43C228.727 261.65 229.424 267.873 230.15 274.1C231.57 286.84 232.994 299.58 234.42 312.32C234.59 313.88 234.76 315.44 234.92 317.01C234.92 317.24 234.53 317.28 234.5 317.01C232.91 304.36 231.59 291.66 230.15 279.01C229.43 272.697 228.714 266.387 228 260.08C227.33 254.21 226.69 248.33 225.78 242.5C224.945 236.745 223.675 231.062 221.98 225.5C220.113 219.74 217.611 214.206 214.52 209C208.27 198.21 201.65 187.61 195.03 177C188.41 166.39 181.61 155.69 174.63 145.21C173.77 143.92 172.9 142.63 172 141.36C171.93 141.29 172.11 141.2 172.17 141.3Z" fill="#263238"/>
<path d="M180.32 369.29C177.86 369.14 114.32 343.4 112.56 340.96C112.482 340.816 112.447 340.653 112.46 340.49C112.46 338.3 116.87 330.66 120.55 320.62C120.78 319.98 122.42 317 124.69 312.99C131 302 142 283.07 142 283.07L183.53 299.57L163.65 329.32L160.56 336.52C160.56 336.52 180.05 356.67 181.69 359.52C183.33 362.37 182.77 369.43 180.32 369.29Z" fill="#EB9481"/>
<path d="M180.32 369.29C177.86 369.14 114.32 343.4 112.56 340.96C112.482 340.816 112.447 340.653 112.46 340.49C112.46 338.3 116.87 330.66 120.55 320.62C120.78 319.98 122.42 317 124.69 312.99L163.69 329.32L160.6 336.52C160.6 336.52 180.09 356.67 181.73 359.52C183.37 362.37 182.77 369.43 180.32 369.29Z" fill="white"/>
<path d="M180.32 369.29C177.86 369.14 114.32 343.4 112.56 340.96C111.88 340.03 114.72 331.36 120.56 320.62L160.56 336.53C160.56 336.53 180.05 356.66 181.7 359.53C183.35 362.4 182.77 369.43 180.32 369.29Z" fill="#A6A6A6"/>
<path d="M180.42 366.45C170.13 362.03 128.19 345.17 117.68 341.59C117.59 341.59 117.57 341.59 117.68 341.65C127.79 346.25 169.86 362.77 180.38 366.65C180.58 366.7 180.64 366.54 180.42 366.45Z" fill="#263238"/>
<path d="M178.62 355.72C177.479 355.219 176.247 354.96 175 354.96C173.754 354.96 172.521 355.219 171.38 355.72C169.329 356.618 167.703 358.273 166.84 360.34C166.84 360.4 166.93 360.45 166.96 360.39C168.139 358.473 169.908 356.989 172.001 356.162C174.094 355.334 176.399 355.207 178.57 355.8C178.587 355.795 178.602 355.785 178.611 355.77C178.62 355.755 178.623 355.737 178.62 355.72Z" fill="#263238"/>
<path d="M164.19 339.18C160.06 337.45 154.64 336.99 150.69 339.36C150.54 339.45 150.69 339.66 150.82 339.65C155.223 339.203 159.662 339.227 164.06 339.72C164.128 339.727 164.196 339.71 164.251 339.671C164.307 339.631 164.347 339.573 164.363 339.507C164.379 339.441 164.37 339.371 164.338 339.311C164.306 339.251 164.254 339.204 164.19 339.18Z" fill="#263238"/>
<path d="M166.9 341.72C162.77 339.99 157.35 339.53 153.4 341.9C153.25 341.99 153.4 342.2 153.53 342.19C157.933 341.738 162.372 341.762 166.77 342.26C166.838 342.267 166.906 342.25 166.961 342.211C167.017 342.172 167.057 342.113 167.073 342.047C167.088 341.981 167.08 341.911 167.048 341.851C167.016 341.791 166.964 341.744 166.9 341.72Z" fill="#263238"/>
<path d="M169.62 344.26C165.48 342.53 160.06 342.07 156.12 344.44C155.96 344.53 156.12 344.74 156.24 344.73C160.643 344.278 165.082 344.302 169.48 344.8C169.549 344.812 169.62 344.797 169.679 344.759C169.737 344.721 169.78 344.662 169.797 344.594C169.815 344.526 169.807 344.454 169.774 344.393C169.741 344.331 169.686 344.283 169.62 344.26Z" fill="#263238"/>
<path d="M172.33 346.8C168.19 345.07 162.78 344.61 158.83 346.97C158.67 347.07 158.83 347.28 158.95 347.27C163.353 346.818 167.792 346.842 172.19 347.34C172.259 347.352 172.33 347.337 172.389 347.299C172.447 347.261 172.49 347.202 172.507 347.134C172.525 347.066 172.516 346.994 172.484 346.933C172.451 346.871 172.396 346.823 172.33 346.8Z" fill="#263238"/>
<path d="M124.28 332.77C119.61 330.91 116.71 338.18 121.4 340.04C126.09 341.9 129 334.63 124.28 332.77Z" fill="#263238"/>
<path d="M173.14 329.88C171.73 327.29 168.4 327.93 166.37 329.22C162.951 331.511 160.192 334.659 158.37 338.35C158.362 338.366 158.358 338.384 158.358 338.402C158.358 338.42 158.362 338.438 158.369 338.454C158.377 338.471 158.388 338.485 158.402 338.496C158.416 338.508 158.433 338.516 158.45 338.52C158.45 338.85 158.67 339.24 159.06 339.16C162.85 338.29 167 337.84 170.4 335.84C172.35 334.68 174.47 332.33 173.14 329.88ZM164.49 336.67C162.64 337.14 160.78 337.52 158.95 338.06C160.464 336.236 162.069 334.491 163.76 332.83C164.593 332.037 165.478 331.302 166.41 330.63C167.86 329.63 173.34 327.78 171.94 332.47C171.17 335.06 166.7 336.11 164.49 336.67Z" fill="#263238"/>
<path d="M147.37 335.75C150.77 337.75 154.92 338.22 158.7 339.1C159.09 339.19 159.35 338.8 159.32 338.46C159.339 338.458 159.357 338.451 159.372 338.44C159.387 338.429 159.4 338.415 159.408 338.397C159.416 338.38 159.419 338.362 159.418 338.343C159.417 338.324 159.41 338.306 159.4 338.29C157.581 334.592 154.822 331.436 151.4 329.14C149.4 327.84 146.05 327.19 144.63 329.77C143.21 332.35 145.38 334.58 147.37 335.75ZM145.81 332.37C144.42 327.68 149.89 329.54 151.34 330.55C152.271 331.223 153.153 331.962 153.98 332.76C155.668 334.424 157.27 336.173 158.78 338C156.95 337.46 155.09 337.07 153.24 336.6C151 336 146.57 335 145.81 332.37Z" fill="#263238"/>
<path d="M166.88 327.66L120.39 308.89C120.39 308.89 178.03 224.14 178.45 217.83C178.83 212.25 153.51 163.63 152.52 149.46C151.44 134.16 158.8 122.33 166.9 114.98L214.85 135.37C214.85 135.37 209.79 143.46 201.85 147.97C201.85 147.97 226.44 204.17 225.04 221.45C223.64 238.73 166.88 327.66 166.88 327.66Z" fill="#37474F"/>
<path d="M168.94 318.82C162.22 315.93 164.19 316.66 157.43 313.82C154.13 312.44 132.43 303.41 129.09 302.66C129.02 302.66 128.97 302.76 129.04 302.8C131.93 304.57 153.81 313.22 157.14 314.54C163.95 317.22 162.02 316.38 168.86 318.98C168.87 318.994 168.884 319.004 168.899 319.011C168.915 319.018 168.932 319.021 168.949 319.02C168.966 319.018 168.982 319.012 168.996 319.003C169.01 318.993 169.022 318.98 169.03 318.965C169.037 318.95 169.041 318.933 169.04 318.916C169.039 318.898 169.034 318.882 169.025 318.867C169.016 318.853 169.004 318.841 168.989 318.833C168.974 318.824 168.957 318.82 168.94 318.82Z" fill="#263238"/>
<path d="M209.71 146.94C204.718 148.104 199.834 149.689 195.11 151.68C195.091 151.687 195.074 151.697 195.059 151.71C195.043 151.724 195.031 151.74 195.022 151.758C195.014 151.776 195.008 151.796 195.007 151.816C195.006 151.836 195.009 151.856 195.015 151.875C195.022 151.894 195.032 151.912 195.045 151.927C195.059 151.942 195.075 151.954 195.093 151.963C195.111 151.972 195.131 151.977 195.151 151.978C195.171 151.979 195.191 151.977 195.21 151.97C200.11 150.54 205.09 149.2 209.91 147.51C210.28 147.38 210.09 146.86 209.71 146.94Z" fill="#263238"/>
<path d="M204 145C203.534 145.829 203.123 146.687 202.77 147.57C202.425 148.24 202.211 148.97 202.14 149.72C202.14 149.87 202.34 149.9 202.43 149.81C202.932 149.21 203.337 148.535 203.63 147.81C204.04 147.02 204.46 146.24 204.85 145.43C205.12 144.84 204.31 144.46 204 145Z" fill="#263238"/>
<path d="M204.6 140.46C204.9 139.72 205.19 138.99 205.5 138.25C205.81 137.51 206.2 136.75 206.5 135.97C206.5 135.85 206.74 135.97 206.69 136.06C206.39 136.8 206.2 137.58 205.97 138.34C205.74 139.1 205.48 139.86 205.23 140.62C204.76 142.03 204.23 143.43 203.58 144.8C204.367 144.839 205.153 144.703 205.88 144.4C206.623 143.925 207.194 143.224 207.51 142.4C207.93 141.58 208.32 140.74 208.75 139.92C209.279 139.034 209.725 138.099 210.08 137.13C210.08 137.01 210.32 137.13 210.27 137.22C209.618 139.27 208.764 141.249 207.72 143.13C207.27 143.86 206.92 144.63 206.1 144.91C205.212 145.158 204.283 145.223 203.37 145.1C203.25 145.1 203.11 145.1 203.15 144.92C203.559 143.41 204.043 141.922 204.6 140.46Z" fill="#263238"/>
<path d="M202.56 149.8C204.27 153.41 205.77 157.01 207.36 160.61C208.95 164.21 210.36 167.69 211.79 171.27C214.65 178.49 217.21 185.85 219.46 193.27C220.57 196.95 221.6 200.66 222.52 204.4C223.534 208.128 224.276 211.925 224.74 215.76C225.142 219.589 224.802 223.459 223.74 227.16C222.638 230.818 221.222 234.374 219.51 237.79C218.46 239.95 218.11 239.66 218.61 238.57C220.04 235.47 223.79 226.08 223.52 218.19C223.302 214.413 222.719 210.665 221.78 207C220.907 203.22 219.924 199.47 218.83 195.75C216.7 188.41 214.17 181.22 211.57 174.04C210.11 170.04 208.57 166.04 207.07 162.04C205.57 158.04 204.07 154.36 202.39 149.94C202.34 149.76 202.51 149.69 202.56 149.8Z" fill="#263238"/>
<path d="M167.27 137.87C168.1 137.56 169.27 138.07 170.11 138.21C171.198 138.395 172.297 138.505 173.4 138.54C174.492 138.578 175.584 138.542 176.67 138.43C177.764 138.402 178.836 138.118 179.8 137.6C181.382 136.448 182.738 135.014 183.8 133.37C185.066 131.69 186.111 129.855 186.91 127.91C186.91 127.79 187.12 127.91 187.08 127.99C186.73 129.1 186.47 130.22 186.08 131.31C185.649 132.334 185.134 133.321 184.54 134.26C183.578 136.15 182.154 137.766 180.4 138.96C178.47 140.06 175.99 139.96 173.84 139.87C172.593 139.797 171.353 139.634 170.13 139.38C169.25 139.19 167.77 139.05 167.21 138.28C167.184 138.251 167.164 138.216 167.153 138.178C167.142 138.14 167.139 138.1 167.144 138.061C167.15 138.022 167.164 137.985 167.186 137.952C167.208 137.919 167.237 137.891 167.27 137.87Z" fill="#263238"/>
<path d="M133.66 300C141.3 288.427 148.8 276.76 156.16 265C163.52 253.24 170.78 241.39 177.94 229.45C179.65 226.6 181.62 223.76 182.72 220.6C183.92 217.17 183.24 213.84 182.16 210.48C180.121 204.35 177.737 198.341 175.02 192.48C172.34 186.57 169.45 180.76 166.61 174.93C163.77 169.1 160.8 163.34 158.61 157.26C156.61 151.45 155.8 145.43 157.36 139.41C158.92 133.39 162.28 128.07 165.79 123.06C166.71 121.74 167.66 120.43 168.59 119.06C168.66 118.96 168.81 119.06 168.74 119.18C164.87 124.4 161.1 129.93 158.83 136.06C157.67 139.082 157.021 142.275 156.91 145.51C156.891 148.793 157.401 152.059 158.42 155.18C160.3 161.26 163.27 167.01 166.04 172.73C168.81 178.45 171.77 184.37 174.5 190.26C177.317 196.188 179.82 202.26 182 208.45C182.93 211.2 184 214.08 183.92 217.03C183.85 220.26 182.31 223.17 180.71 225.89C173.71 237.74 166.54 249.45 159.24 261.09C151.94 272.73 144.43 284.37 136.83 295.89L133.95 300.24C133.8 300.42 133.54 300.21 133.66 300Z" fill="#263238"/>
<path d="M217.51 81.47C221.84 90.97 243.71 104.06 253.95 105.47C261.31 106.47 283.69 106.83 291.36 105.66C300.36 104.28 293.48 80.03 288.17 80.66C273.57 82.36 261.17 84.26 257.27 84.26C252.51 84.26 226.76 76 223.66 74.83C216.06 72 215.06 76.08 217.51 81.47Z" fill="#EB9481"/>
<path d="M217.65 84C223.13 92.11 241.34 105.37 241.34 105.37L243.87 99.77L252.24 81.25C252.24 81.25 235.51 76 224.5 73.6C223.205 73.3051 221.887 73.1178 220.56 73.04C213.53 72.66 212.92 77 217.65 84Z" fill="#FFC727"/>
<path d="M217.65 84C223.13 92.11 241.34 105.37 241.34 105.37L243.87 99.77C237.08 91.88 226.59 79.93 220.56 73.06C213.53 72.66 212.92 77 217.65 84Z" fill="#263238"/>
<path d="M238.06 101.61C239.45 98.2 245.63 84.47 247.17 81.61C247.27 81.41 247.43 81.43 247.34 81.61C244.659 88.4379 241.608 95.1145 238.2 101.61C238.16 101.73 238 101.69 238.06 101.61Z" fill="#263238"/>
<path d="M285.49 80.91C294.37 79.75 305.36 77.76 314.67 81.71C315.716 82.1202 316.593 82.8705 317.16 83.84C321.36 85.54 321.82 88.03 321.82 88.03C325.25 90.81 325.37 93.43 325.37 93.43C325.37 93.43 330.29 95.43 329.54 98.65C328.72 102.21 321.98 98.65 317.08 98.94C305.83 99.64 290.08 103.77 286.83 104.29L285.49 80.91Z" fill="#EB9481"/>
<path d="M304.78 91.39C308.07 91.1651 311.371 91.1651 314.66 91.39C318.242 91.8395 321.786 92.5582 325.26 93.54C325.283 93.548 325.307 93.5467 325.329 93.5363C325.351 93.526 325.367 93.5076 325.375 93.485C325.383 93.4625 325.382 93.4377 325.371 93.4161C325.361 93.3946 325.343 93.378 325.32 93.37C318.793 90.8092 311.688 90.0897 304.78 91.29C304.62 91.27 304.62 91.4 304.78 91.39Z" fill="#263238"/>
<path d="M302.69 81C308.18 81.28 311.61 82.16 317.13 83.82V83.76C311.05 81.22 308.56 80.98 302.66 80.76C302.47 80.84 302.48 81 302.69 81Z" fill="#263238"/>
<path d="M303.58 100.64C302.15 101.31 302.5 102.06 305.23 102.69C307.96 103.32 319.31 103.51 318.91 107.47C318.51 111.43 302.5 110.93 298.03 109.53C293.56 108.13 286.83 104.29 286.83 104.29C290 103.76 297.44 101.75 303.58 100.64Z" fill="#EB9481"/>
<path d="M229.4 96.61C229.33 98.32 229.17 100.06 228.93 101.79C228.93 101.72 228.93 101.66 229 101.6C229.33 100.7 229.66 99.78 230.06 98.91C230.06 98.91 230.16 98.91 230.15 98.91C229.958 99.8633 229.67 100.795 229.29 101.69C229.11 102.12 228.94 102.54 228.75 102.96C228.63 103.73 228.49 104.49 228.34 105.25C228.04 106.68 226.69 112.76 226.34 113.79C226.28 114 226.02 113.95 226.04 113.71C226.11 112.59 227.24 106.26 227.47 104.82C227.917 102.04 228.514 99.2856 229.26 96.57C229.31 96.52 229.41 96.56 229.4 96.61Z" fill="#263238"/>
<path d="M219 142.08C216.33 143.45 212.89 145.58 197.39 142.53C196.39 142.33 195.45 142.09 194.47 141.8C179.94 137.44 162.47 120.35 161.52 119.14C161.52 119.14 184.61 81.71 214.14 69.94C217.79 68.49 223.83 71.29 227.14 74.78C228.33 76.03 230.92 85.22 229.93 92.66C228.94 100.1 221.66 140.71 219 142.08Z" fill="#FFC727"/>
<path d="M216.92 92.32C217.032 93.9017 216.81 95.4892 216.27 96.98C216.143 95.3978 216.365 93.8071 216.92 92.32Z" fill="white"/>
<path d="M206.85 117.81C206.914 118.597 206.887 119.389 206.77 120.17C206.674 120.957 206.483 121.729 206.2 122.47C206.131 121.68 206.158 120.884 206.28 120.1C206.383 119.317 206.574 118.549 206.85 117.81Z" fill="white"/>
<path d="M189.74 98.54C189.853 100.125 189.632 101.716 189.09 103.21C188.965 101.625 189.186 100.031 189.74 98.54Z" fill="white"/>
<path d="M223.51 116.51C223.574 117.3 223.547 118.096 223.43 118.88C223.334 119.667 223.143 120.439 222.86 121.18C222.792 120.39 222.818 119.594 222.94 118.81C223.041 118.024 223.233 117.252 223.51 116.51Z" fill="white"/>
<path d="M201.54 95.24C202.327 95.1731 203.119 95.1965 203.9 95.31C204.687 95.4098 205.46 95.6045 206.2 95.89C204.618 96.0036 203.03 95.7821 201.54 95.24Z" fill="white"/>
<path d="M182.12 113.65C183.702 113.539 185.289 113.76 186.78 114.3C185.198 114.427 183.607 114.205 182.12 113.65Z" fill="white"/>
<path d="M205 133.58C206.582 133.466 208.17 133.688 209.66 134.23C208.078 134.355 206.488 134.133 205 133.58Z" fill="white"/>
<path d="M176.13 126.34C177.712 126.229 179.3 126.45 180.79 126.99C179.208 127.115 177.618 126.893 176.13 126.34Z" fill="white"/>
<path d="M216.77 74.4C218.352 74.2885 219.939 74.51 221.43 75.05C219.848 75.1615 218.261 74.9401 216.77 74.4Z" fill="white"/>
<path d="M211.12 80.78C210.615 81.3878 210.037 81.9317 209.4 82.4C208.781 82.8792 208.11 83.2884 207.4 83.62C207.903 83.0162 208.473 82.4726 209.1 82C209.726 81.519 210.404 81.1098 211.12 80.78Z" fill="white"/>
<path d="M180.33 98.91C179.818 99.5125 179.238 100.053 178.6 100.52C177.987 101.008 177.315 101.418 176.6 101.74C177.115 101.14 177.695 100.6 178.33 100.13C178.945 99.6439 179.616 99.2342 180.33 98.91Z" fill="white"/>
<path d="M218.78 107.09C218.269 107.696 217.688 108.239 217.05 108.71C216.435 109.196 215.764 109.606 215.05 109.93C215.562 109.324 216.142 108.781 216.78 108.31C217.398 107.829 218.069 107.419 218.78 107.09Z" fill="white"/>
<path d="M193.88 122.77C193.369 123.376 192.788 123.919 192.15 124.39C191.535 124.875 190.863 125.284 190.15 125.61C190.662 125.004 191.243 124.461 191.88 123.99C192.499 123.509 193.17 123.099 193.88 122.77Z" fill="white"/>
<path d="M228.32 85.67C227.809 86.2756 227.228 86.8193 226.59 87.29C225.971 87.7692 225.3 88.1784 224.59 88.51C225.102 87.9045 225.683 87.3608 226.32 86.89C226.936 86.4053 227.608 85.9958 228.32 85.67Z" fill="white"/>
<path d="M227.8 103.84C227.195 103.328 226.651 102.748 226.18 102.11C225.694 101.496 225.284 100.824 224.96 100.11C225.568 100.616 226.112 101.193 226.58 101.83C227.058 102.454 227.467 103.128 227.8 103.84Z" fill="white"/>
<path d="M172.3 116.36C171.695 115.848 171.151 115.268 170.68 114.63C170.199 114.012 169.79 113.341 169.46 112.63C170.066 113.142 170.61 113.722 171.08 114.36C171.565 114.976 171.975 115.647 172.3 116.36Z" fill="white"/>
<path d="M221.05 131.25C220.443 130.744 219.899 130.167 219.43 129.53C218.951 128.91 218.542 128.24 218.21 127.53C218.816 128.042 219.36 128.622 219.83 129.26C220.313 129.874 220.722 130.542 221.05 131.25Z" fill="white"/>
<path d="M196.62 88.8C196.015 88.292 195.471 87.7147 195 87.08C194.523 86.459 194.114 85.7885 193.78 85.08C194.388 85.5856 194.932 86.1631 195.4 86.8C195.877 87.4211 196.286 88.0916 196.62 88.8Z" fill="white"/>
<path d="M197.05 139.73C196.445 139.218 195.901 138.638 195.43 138C194.951 137.381 194.542 136.71 194.21 136C194.818 136.506 195.362 137.083 195.83 137.72C196.312 138.342 196.721 139.016 197.05 139.73Z" fill="white"/>
<path d="M201.2 109.69C200.6 109.176 200.06 108.595 199.59 107.96C199.102 107.347 198.692 106.675 198.37 105.96C198.973 106.472 199.513 107.052 199.98 107.69C200.466 108.305 200.876 108.976 201.2 109.69Z" fill="white"/>
<path d="M221.73 84.75C217.96 84.05 214.42 76.26 213.97 71.02C213.97 70.66 215.73 67.81 217.74 64.24C218.96 62.07 220.25 59.62 221.28 57.3C221.49 56.83 222.72 58.42 222.72 58.42L225.4 60.42L234.25 67.21C232.143 69.7389 230.353 72.5162 228.92 75.48C228.779 75.8012 228.671 76.1364 228.6 76.48C228.596 76.5366 228.596 76.5934 228.6 76.65C228.05 78.63 225.36 85.42 221.73 84.75Z" fill="#EB9481"/>
<path d="M228.6 76.53C228.596 76.5866 228.596 76.6434 228.6 76.7C228.075 76.546 227.563 76.3486 227.07 76.11C217.38 71.57 221.65 58.59 221.65 58.59L225.45 60.47L234.3 67.26C232.193 69.7889 230.403 72.5662 228.97 75.53C228.812 75.8492 228.688 76.1845 228.6 76.53Z" fill="#263238"/>
<path d="M244.42 39.58C244.42 39.58 248.85 42.39 248.87 47.39C248.89 52.39 246.87 57.28 246.45 57.46C246.03 57.64 244.42 39.58 244.42 39.58Z" fill="#263238"/>
<path d="M222.44 42.18C219.78 47.43 219.92 63.98 223.24 68.24C228.06 74.42 237.34 76.55 242.95 70.44C248.38 64.52 247.82 42.96 243.95 38.94C238.32 33 226.38 34.41 222.44 42.18Z" fill="#EB9481"/>
<path d="M236.56 55.43C236.56 55.43 236.47 55.49 236.48 55.53C236.54 56.66 236.42 57.96 235.41 58.36C235.41 58.36 235.41 58.43 235.41 58.42C236.66 58.22 236.8 56.49 236.56 55.43Z" fill="#263238"/>
<path d="M235.53 54.28C233.71 54.18 233.65 57.82 235.34 57.91C237.03 58 237.05 54.36 235.53 54.28Z" fill="#263238"/>
<path d="M242.73 55.39C242.73 55.39 242.82 55.39 242.82 55.49C242.76 56.62 242.89 57.92 243.91 58.31C243.91 58.31 243.91 58.38 243.91 58.37C242.65 58.18 242.5 56.45 242.73 55.39Z" fill="#263238"/>
<path d="M243.76 54.23C245.57 54.12 245.66 57.76 243.98 57.86C242.3 57.96 242.24 54.32 243.76 54.23Z" fill="#263238"/>
<path d="M234.39 51.51C234.868 51.374 235.339 51.2138 235.8 51.03C236.326 50.9349 236.804 50.6675 237.16 50.27C237.247 50.1244 237.283 49.9545 237.263 49.7863C237.243 49.6182 237.168 49.4614 237.05 49.34C236.78 49.1343 236.459 49.0045 236.122 48.9641C235.784 48.9236 235.442 48.974 235.13 49.11C234.455 49.2907 233.871 49.7145 233.49 50.3C233.414 50.4393 233.38 50.5975 233.391 50.7558C233.402 50.9141 233.458 51.0659 233.553 51.1933C233.647 51.3206 233.777 51.4181 233.925 51.4743C234.074 51.5304 234.235 51.5428 234.39 51.51Z" fill="#263238"/>
<path d="M245 53.12C244.514 53.0113 244.033 52.8778 243.56 52.72C243.033 52.6503 242.544 52.4076 242.17 52.03C242.074 51.891 242.027 51.7234 242.038 51.5546C242.049 51.3858 242.117 51.2256 242.23 51.1C242.488 50.8795 242.801 50.7326 243.135 50.6745C243.469 50.6164 243.813 50.6494 244.13 50.77C244.814 50.9118 245.421 51.3042 245.83 51.87C245.916 52.004 245.961 52.1599 245.959 52.3189C245.958 52.4779 245.91 52.6331 245.823 52.7655C245.735 52.898 245.61 53.002 245.464 53.065C245.318 53.1279 245.157 53.1471 245 53.12Z" fill="#263238"/>
<path d="M234 66.12C234.27 66.39 234.53 66.75 234.94 66.79C235.361 66.7898 235.776 66.7012 236.16 66.53C236.16 66.53 236.23 66.53 236.16 66.59C235.997 66.8098 235.776 66.9809 235.522 67.0848C235.269 67.1887 234.991 67.2217 234.72 67.18C234.492 67.1177 234.287 66.9898 234.13 66.812C233.974 66.6343 233.873 66.4145 233.84 66.18C233.832 66.1588 233.833 66.1353 233.843 66.1147C233.852 66.094 233.869 66.078 233.89 66.07C233.912 66.0621 233.935 66.0629 233.956 66.0722C233.976 66.0816 233.992 66.0988 234 66.12Z" fill="#263238"/>
<path d="M240.54 61.3C240.54 61.3 240.59 62.98 240.54 63.77C239.004 63.6069 237.452 63.6608 235.93 63.93C235.57 64.01 235.61 63.72 236.02 63.53C237.246 62.9698 238.611 62.7887 239.94 63.01C240.02 62.8 239.81 60.41 239.94 60.42C240.545 60.5387 241.131 60.7407 241.68 61.02C241.68 57.5 241.12 54.02 241.17 50.5C241.17 50.38 241.36 50.36 241.38 50.5C242.091 54.2237 242.426 58.0094 242.38 61.8C242.39 62.23 240.84 61.46 240.54 61.3Z" fill="#263238"/>
<path d="M238.29 63.17C237.891 64.2185 237.152 65.1026 236.19 65.68C234.68 66.29 234.19 64.92 235.71 63.68C236.507 63.2771 237.4 63.1007 238.29 63.17Z" fill="#263238"/>
<path d="M236.72 65.37C236.561 65.5 236.382 65.6046 236.19 65.68C234.8 66.24 234.25 65.13 235.37 64.01C236.13 64.07 237 64.35 236.72 65.37Z" fill="#FF99BA"/>
<path d="M221.68 56.33C223.51 56.89 225.61 51.39 226.21 49.33C226.73 47.47 227.33 41.56 227.42 41.15C227.51 40.74 235.42 46.38 240 45.04C244.58 43.7 247.69 39.55 247.76 37.62C247.83 35.69 242.1 30.79 237.15 30.54C232.2 30.29 225.49 36.54 225.49 36.54C226.301 35.6202 227.036 34.6371 227.69 33.6C227.61 33.38 224.41 34.66 223.82 36.94C223.82 36.94 224.46 34.07 224.22 34.02C223.98 33.97 221.49 36.42 222.05 38.28C222.05 38.28 219.17 40.77 218.91 43.5C218.65 46.23 219.53 55.67 221.68 56.33Z" fill="#263238"/>
<path d="M243.28 44C241.918 44.7386 240.451 45.2646 238.93 45.56C237.223 45.7123 235.505 45.4374 233.93 44.76C232.344 44.1473 230.871 43.2754 229.57 42.18C228.42 41.24 227.39 40.09 226.16 39.25C225.85 39.03 225.5 39.48 225.69 39.76C227.742 42.6586 230.674 44.8187 234.05 45.92C235.618 46.4313 237.292 46.5269 238.908 46.1973C240.524 45.8678 242.027 45.1245 243.27 44.04C243.27 44.04 243.3 44 243.28 44Z" fill="#263238"/>
<path d="M223.59 55.84C223.59 55.84 220.75 50.08 218.19 51.01C215.63 51.94 217.19 59.91 219.82 61.37C220.142 61.5784 220.503 61.7196 220.881 61.7852C221.259 61.8508 221.647 61.8393 222.02 61.7516C222.394 61.6638 222.746 61.5015 223.055 61.2744C223.364 61.0473 223.624 60.7601 223.82 60.43L223.59 55.84Z" fill="#EB9481"/>
<path d="M218.7 53.28C218.7 53.28 218.64 53.28 218.7 53.36C220.52 54.44 221.26 56.36 221.7 58.36C221.617 58.1483 221.489 57.9571 221.325 57.7996C221.161 57.6422 220.965 57.5222 220.75 57.448C220.535 57.3739 220.307 57.3473 220.081 57.37C219.854 57.3928 219.636 57.4645 219.44 57.58C219.38 57.58 219.44 57.69 219.44 57.69C219.798 57.6344 220.164 57.6911 220.488 57.8523C220.812 58.0135 221.078 58.2712 221.25 58.59C221.536 59.124 221.764 59.6873 221.93 60.27C221.99 60.46 222.32 60.41 222.29 60.2C222.72 57.71 221.32 53.94 218.7 53.28Z" fill="#263238"/>
<path d="M204.84 81.56C202.84 92.89 215.12 131.06 222.99 138.19C234.7 148.79 256.35 155.76 264.2 158.03C267.62 159.03 277.08 134.96 273.62 133.37C266.21 130 243.19 122.8 241 121C238.81 119.2 225.61 100.13 219.73 89.15C211.86 74.37 205.83 75.83 204.84 81.56Z" fill="#EB9481"/>
<path d="M267.79 131.25C267.79 131.25 278.01 133.86 284.6 135.87C288.28 137 294.42 139.49 296.75 141.55C300.23 144.64 312.81 159.76 309.21 162.89C305.95 165.73 296.79 151.36 296.79 151.36C296.79 151.36 307.31 165.04 302.79 167.73C298.27 170.42 290 152.81 290 152.81C290 152.81 300.49 167.11 295.36 169.14C291.48 170.67 283.16 155.14 283.16 155.14C283.16 155.14 292.1 167.49 288.16 169.24C283.82 171.18 275.25 157.32 275.25 157.32C264.53 160.09 258.25 157.02 254.12 154.32C253.15 153.66 267.79 131.25 267.79 131.25Z" fill="#EB9481"/>
<path d="M293.45 146.39C294.75 147.95 296.07 149.53 297.22 151.2C298.37 152.87 299.46 154.59 300.45 156.36C301.791 158.649 302.865 161.085 303.65 163.62C301.93 159.22 297.9 153.17 296.75 151.5C295.6 149.83 294.53 148.1 293.39 146.43C293.36 146.39 293.42 146.35 293.45 146.39Z" fill="#263238"/>
<path d="M287.34 150.44C289.56 152.2 294.21 158.74 296 163.13C296.08 163.31 296 163.3 295.87 163.13C294.47 160.96 288.791 152.56 287.291 150.47C287.261 150.44 287.31 150.41 287.34 150.44Z" fill="#263238"/>
<path d="M281.47 153C284.228 155.893 286.408 159.288 287.89 163C287.96 163.18 287.82 163.15 287.71 163C285.64 159.63 284.04 157 281.36 153.09C281.32 153 281.41 152.91 281.47 153Z" fill="#263238"/>
<path d="M216 82.39C206.87 69.48 201.41 74.26 203.24 88.28C204.96 101.39 209.55 117.01 209.55 117.01L232.55 105.85C232.55 105.85 221.81 90.66 216 82.39Z" fill="#FFC727"/>
<path d="M221.55 87.47C221.853 88.1992 222.071 88.9609 222.2 89.74C222.341 90.5217 222.391 91.3169 222.35 92.11C222.05 91.377 221.836 90.612 221.71 89.83C221.561 89.0527 221.508 88.2603 221.55 87.47Z" fill="white"/>
<path d="M207.92 95.32C209.388 94.723 210.967 94.4501 212.55 94.52C211.821 94.8199 211.059 95.0346 210.28 95.16C209.503 95.3084 208.711 95.3621 207.92 95.32Z" fill="white"/>
<path d="M208.51 75.24C207.891 76.7014 206.967 78.014 205.8 79.09C206.42 77.6285 207.343 76.316 208.51 75.24Z" fill="white"/>
<path d="M228 101.35C227.696 102.081 227.311 102.776 226.85 103.42C226.402 104.072 225.878 104.67 225.29 105.2C225.909 103.739 226.833 102.426 228 101.35Z" fill="white"/>
<path d="M212 109.18C211.267 108.88 210.572 108.494 209.93 108.03C209.278 107.582 208.68 107.058 208.15 106.47C209.612 107.089 210.924 108.013 212 109.18Z" fill="white"/>
<path d="M219 86.28C220.23 87.97 221.5 89.62 222.76 91.28C222.44 90.44 222.16 89.59 221.92 88.73H221.98C222.23 89.39 222.52 90.04 222.76 90.73L223.12 91.73C223.151 91.7983 223.178 91.8684 223.2 91.94C224.2 93.23 225.2 94.52 226.12 95.84C227.25 97.42 228.34 99.02 229.44 100.62C230.54 102.22 231.65 104.21 232.84 105.82C232.95 105.96 230.84 106.82 230.61 106.93C230.38 107.04 230.26 106.85 230.48 106.78C230.7 106.71 232.38 105.68 232.4 105.66C231.3 104.04 230.03 102.55 228.88 100.98C227.73 99.41 226.59 97.84 225.48 96.25C223.23 93.01 221.17 89.65 218.93 86.4L219 86.28Z" fill="#263238"/>
<path d="M203.78 97.56C204.13 98.24 204.51 98.91 204.78 99.61L205.16 100.48C204.63 97.99 204.16 95.48 203.61 92.99C204.67 96.99 205.74 101.08 206.72 105.14C207.65 109.02 208.78 112.94 209.32 116.9C210.018 116.594 210.74 116.35 211.48 116.17C210.738 116.651 209.938 117.037 209.1 117.32C207.895 113.293 206.894 109.208 206.1 105.08C205.85 103.96 205.62 102.84 205.38 101.72C205.12 101.04 204.81 100.39 204.5 99.72C204.19 99.05 203.91 98.3 203.63 97.59C203.69 97.55 203.76 97.51 203.78 97.56Z" fill="#263238"/>
<path d="M209.89 113.15C213.09 111.35 226.46 104.43 229.45 103.15C229.66 103.06 229.77 103.15 229.56 103.29C223.214 106.978 216.671 110.316 209.96 113.29C209.88 113.31 209.8 113.2 209.89 113.15Z" fill="#263238"/>
<path d="M576.32 376.05H271.64L315.69 126.2H620.37L576.32 376.05Z" fill="#FFC727"/>
<path d="M419.97 100.32H320.26L315.69 126.2H422.4L419.97 100.32Z" fill="#FFC727"/>
<g opacity="0.1">
<path d="M576.32 376.05H271.64L315.69 126.2H620.37L576.32 376.05Z" fill="black"/>
<path d="M419.97 100.32H320.26L315.69 126.2H422.4L419.97 100.32Z" fill="black"/>
</g>
<path d="M309.5 110.88C308.833 108.018 308.833 105.042 309.5 102.18C310.167 105.042 310.167 108.018 309.5 110.88Z" fill="#263238"/>
<path d="M300.64 113.44C299.622 112.384 298.745 111.201 298.03 109.92C297.281 108.666 296.693 107.322 296.28 105.92C297.301 106.97 298.179 108.15 298.89 109.43C299.638 110.689 300.226 112.036 300.64 113.44Z" fill="#263238"/>
<path d="M294.24 120.09C291.43 119.236 288.854 117.747 286.71 115.74C288.112 116.147 289.456 116.732 290.71 117.48C291.991 118.199 293.177 119.076 294.24 120.09Z" fill="#263238"/>
<path d="M292 129.05C289.139 129.717 286.162 129.717 283.3 129.05C286.162 128.383 289.139 128.383 292 129.05Z" fill="#263238"/>
<path d="M294.6 137.91C293.54 138.923 292.357 139.8 291.08 140.52C289.826 141.268 288.482 141.853 287.08 142.26C288.136 141.242 289.319 140.365 290.6 139.65C291.852 138.899 293.197 138.314 294.6 137.91Z" fill="#263238"/>
<path d="M301.24 144.3C300.389 147.114 298.9 149.694 296.89 151.84C297.297 150.436 297.886 149.092 298.64 147.84C299.353 146.554 300.227 145.365 301.24 144.3Z" fill="#263238"/>
<path d="M310.2 146.51C310.549 147.933 310.717 149.395 310.7 150.86C310.722 152.326 310.553 153.788 310.2 155.21C309.842 153.789 309.673 152.326 309.7 150.86C309.683 149.395 309.851 147.933 310.2 146.51Z" fill="#263238"/>
<path d="M319.06 144C320.078 145.056 320.956 146.239 321.67 147.52C322.421 148.772 323.006 150.117 323.41 151.52C321.4 149.374 319.911 146.794 319.06 143.98V144Z" fill="#263238"/>
<path d="M325.45 137.3C326.853 137.704 328.198 138.289 329.45 139.04C330.731 139.754 331.914 140.632 332.97 141.65C331.567 141.246 330.222 140.661 328.97 139.91C327.689 139.195 326.506 138.318 325.45 137.3Z" fill="#263238"/>
<path d="M327.66 128.34C330.525 127.673 333.505 127.673 336.37 128.34C333.505 129.007 330.525 129.007 327.66 128.34Z" fill="#263238"/>
<path d="M325.1 119.48C326.159 118.468 327.341 117.594 328.62 116.88C329.87 116.121 331.215 115.533 332.62 115.13C330.474 117.14 327.894 118.629 325.08 119.48H325.1Z" fill="#263238"/>
<path d="M318.45 113.09C318.862 111.69 319.446 110.346 320.19 109.09C320.905 107.809 321.782 106.626 322.8 105.57C322.396 106.973 321.812 108.318 321.06 109.57C320.346 110.851 319.468 112.034 318.45 113.09Z" fill="#263238"/>
<path d="M575.87 376.05H270.54L227.18 135.27H532.52L575.87 376.05Z" fill="#FFC727"/>
<path d="M332.99 282.46C339.999 282.46 345.68 276.778 345.68 269.77C345.68 262.761 339.999 257.08 332.99 257.08C325.982 257.08 320.3 262.761 320.3 269.77C320.3 276.778 325.982 282.46 332.99 282.46Z" fill="#263238"/>
<path d="M433.31 282.46C440.319 282.46 446 276.778 446 269.77C446 262.761 440.319 257.08 433.31 257.08C426.302 257.08 420.62 262.761 420.62 269.77C420.62 276.778 426.302 282.46 433.31 282.46Z" fill="#263238"/>
<path d="M401.38 284.49L400.68 283.16C400.62 283.04 394.06 270.92 380.87 270.92C368.87 270.92 365.87 282.33 365.79 282.82L365.43 284.27L362.52 283.57L362.87 282.11C362.87 281.97 366.45 267.92 380.87 267.92C395.87 267.92 403.04 281.2 403.34 281.77L404.04 283.09L401.38 284.49Z" fill="#263238"/>
<path d="M555.71 268.8L555.5 267.8C556.15 267.66 556.79 267.51 557.43 267.34L557.68 268.34C557 268.51 556.37 268.66 555.71 268.8Z" fill="#263238"/>
<path d="M561.55 267.19L561.23 266.25C562.48 265.82 563.73 265.35 564.94 264.84L565.33 265.76C564.1 266.28 562.83 266.76 561.55 267.19ZM569 264L568.55 263.12C569.72 262.51 570.89 261.85 572 261.12L572.52 261.97C571.38 262.76 570.19 263.43 569 264ZM575.88 259.77L575.29 258.96C576.37 258.17 577.41 257.34 578.39 256.49L579.05 257.24C578 258.15 577 259 575.87 259.81L575.88 259.77ZM581.98 254.45L581.25 253.76C582.17 252.76 583.04 251.76 583.84 250.76L584.63 251.37C583.8 252.47 582.91 253.5 582 254.49L581.98 254.45ZM586.93 248.05L586.08 247.52C586.771 246.403 587.386 245.24 587.92 244.04L588.84 244.45C588.274 245.701 587.633 246.917 586.92 248.09L586.93 248.05ZM590.24 240.63L589.24 240.35C589.605 239.095 589.876 237.815 590.05 236.52L591.05 236.65C590.884 238.01 590.61 239.354 590.23 240.67L590.24 240.63ZM591.35 232.63H590.35V232.34C590.35 231.13 590.28 229.9 590.16 228.69L591.16 228.59C591.291 229.836 591.358 231.087 591.36 232.34L591.35 232.63ZM589.55 224.8C589.281 223.511 588.947 222.236 588.55 220.98L589.55 220.68C589.96 221.98 590.31 223.3 590.55 224.59L589.55 224.8ZM587.18 217.27C586.7 216.09 586.18 214.88 585.54 213.66L586.44 213.21C587.05 214.45 587.61 215.69 588.1 216.89L587.18 217.27ZM583.68 210.14C583.06 209.05 582.38 207.9 581.68 206.72L582.53 206.19C583.26 207.38 583.95 208.54 584.53 209.65L583.68 210.14ZM579.5 203.35C578.77 202.25 578.03 201.14 577.27 200.03L578.1 199.47C578.86 200.58 579.6 201.69 580.33 202.81L579.5 203.35ZM575 196.73C574.25 195.63 573.49 194.52 572.75 193.42L573.58 192.86C574.32 193.96 575.07 195.07 575.82 196.16L575 196.73ZM570.53 190.07C569.8 188.95 569.09 187.81 568.39 186.67L569.24 186.15C569.94 187.29 570.65 188.41 571.37 189.53L570.53 190.07ZM566.36 183.2C565.68 181.99 565.05 180.79 564.48 179.64L565.38 179.19C565.94 180.33 566.57 181.51 567.23 182.71L566.36 183.2ZM562.81 176C562.28 174.75 561.81 173.48 561.37 172.24L562.37 171.92C562.79 173.13 563.26 174.38 563.78 175.61L562.81 176ZM560.21 168.37C559.88 167.07 559.59 165.74 559.37 164.37L560.37 164.21C560.59 165.49 560.86 166.79 561.19 168.07L560.21 168.37ZM558.87 160.37C558.77 159.14 558.72 157.9 558.72 156.66V156.33H559.72V156.65C559.72 157.86 559.72 159.08 559.87 160.28L558.87 160.37ZM559.87 152.37L558.87 152.27C558.87 152 558.92 151.72 558.95 151.43C559.07 150.36 559.22 149.29 559.4 148.27L560.4 148.44C560.23 149.44 560.08 150.49 559.96 151.54C560 151.85 560 152.12 559.92 152.4L559.87 152.37ZM561.26 144.59L560.26 144.32C560.63 143 561.06 141.71 561.54 140.48L562.47 140.84C562.015 142.078 561.628 143.34 561.31 144.62L561.26 144.59ZM611.09 138.76C610.53 138.76 609.95 138.68 609.38 138.6C608.6 138.49 607.82 138.36 607.05 138.21L607.25 137.21C607.99 137.35 608.76 137.48 609.52 137.59C610.06 137.66 610.61 137.71 611.14 137.74L611.09 138.76ZM615.2 138.45L614.99 137.45C616.245 137.191 617.448 136.724 618.55 136.07L619.07 136.92C617.892 137.649 616.601 138.176 615.25 138.48L615.2 138.45ZM564.14 137.26L563.25 136.79C563.887 135.597 564.591 134.442 565.36 133.33L566.18 133.9C565.449 134.989 564.784 136.121 564.19 137.29L564.14 137.26ZM603.14 137.2C601.849 136.79 600.58 136.313 599.34 135.77L599.75 134.85C600.952 135.384 602.184 135.848 603.44 136.24L603.14 137.2ZM622.14 134.08L621.31 133.52C622.022 132.487 622.443 131.282 622.53 130.03L623.53 130.1C623.445 131.535 622.975 132.92 622.17 134.11L622.14 134.08ZM595.74 133.93C594.569 133.25 593.438 132.505 592.35 131.7L592.94 130.9C593.999 131.681 595.1 132.402 596.24 133.06L595.74 133.93ZM568.64 130.81L567.9 130.14C568.805 129.133 569.77 128.181 570.79 127.29L571.45 128.04C570.469 128.918 569.54 129.853 568.67 130.84L568.64 130.81ZM589.23 129.12C588.234 128.202 587.289 127.231 586.4 126.21L587.15 125.55C588.015 126.542 588.933 127.486 589.9 128.38L589.23 129.12ZM621.78 126.41C621.207 125.267 620.415 124.248 619.45 123.41L620.11 122.66C621.172 123.579 622.045 124.697 622.68 125.95L621.78 126.41ZM574.56 125.62L573.99 124.8C575.109 124.036 576.267 123.332 577.46 122.69L577.93 123.57C576.781 124.205 575.666 124.899 574.59 125.65L574.56 125.62ZM583.9 123.02C583.52 122.48 583.15 121.93 582.8 121.36L581.5 121.87L581.12 120.95L582.27 120.49C582.09 120.19 581.91 119.89 581.74 119.59L582.61 119.1C582.81 119.45 583.01 119.8 583.22 120.1C583.78 119.9 584.35 119.71 584.93 119.53L585.22 120.53C584.73 120.68 584.22 120.84 583.76 121.01C584.07 121.5 584.39 122.01 584.76 122.44L583.9 123.02ZM616.23 121.3C615.262 120.818 614.259 120.41 613.23 120.08L612.57 119.87L612.86 118.87L613.54 119.09C614.611 119.431 615.654 119.856 616.66 120.36L616.23 121.3ZM589.05 119.51L588.84 118.51C590.13 118.22 591.47 117.98 592.84 117.79L592.99 118.79C591.67 119 590.36 119.25 589.08 119.54L589.05 119.51ZM608.75 118.97C607.5 118.75 606.18 118.58 604.83 118.46L604.91 117.46C606.3 117.58 607.65 117.75 608.91 117.98L608.75 118.97ZM596.9 118.39L596.83 117.39C598.02 117.32 599.21 117.28 600.39 117.28H600.88V118.28H600.4C599.27 118.31 598.09 118.34 596.93 118.42L596.9 118.39ZM580 116C579.46 114.78 579 113.51 578.55 112.22L579.55 111.91C579.97 113.17 580.44 114.41 580.96 115.6L580 116ZM577.47 108.32C577.17 107.03 576.92 105.69 576.73 104.32L577.73 104.18C577.92 105.5 578.16 106.81 578.45 108.08L577.47 108.32ZM576.35 100.32C576.3 99.42 576.27 98.5 576.27 97.58C576.27 97.15 576.27 96.71 576.27 96.28H577.27C577.27 96.71 577.27 97.13 577.27 97.56C577.27 98.46 577.27 99.37 577.34 100.24L576.35 100.32ZM577.54 92.32L576.54 92.22C576.68 90.9 576.87 89.55 577.1 88.22L578.1 88.39C577.83 89.72 577.64 91 577.51 92.34L577.54 92.32ZM578.91 84.51L577.91 84.27C578.23 82.98 578.6 81.68 579.01 80.38L580.01 80.69C579.56 82 579.19 83.27 578.88 84.53L578.91 84.51ZM581.31 76.94L580.38 76.58C580.87 75.33 581.38 74.08 581.99 72.87L582.89 73.31C582.29 74.51 581.76 75.73 581.28 77L581.31 76.94ZM584.75 69.81L583.88 69.3C584.56 68.15 585.29 67 586.05 65.9L586.87 66.47C586.09 67.57 585.38 68.69 584.72 69.83L584.75 69.81ZM589.26 63.3L588.48 62.67C589.32 61.67 590.22 60.61 591.15 59.67L591.87 60.36C590.93 61.3 590.05 62.3 589.23 63.32L589.26 63.3ZM594.7 57.54L594.03 56.8C595.03 55.91 596.03 55.03 597.1 54.18L597.72 54.97C596.65 55.82 595.63 56.69 594.67 57.56L594.7 57.54ZM600.91 52.6L600.34 51.77C601.43 51.02 602.57 50.28 603.73 49.58L604.24 50.43C603.08 51.14 602 51.87 600.88 52.62L600.91 52.6ZM607.7 48.47L607.23 47.59C608.41 46.96 609.63 46.36 610.85 45.8L611.27 46.71C610 47.28 608.83 47.88 607.67 48.49L607.7 48.47ZM614.93 45.15L614.56 44.21C615.82 43.72 617.09 43.21 618.35 42.84L618.67 43.84C617.4 44.22 616.14 44.68 614.9 45.17L614.93 45.15Z" fill="#263238"/>
<path d="M622.64 42.62L622.39 41.62C623.63 41.3 624.39 41.16 624.39 41.16L624.57 42.16C624.57 42.16 623.85 42.31 622.64 42.62Z" fill="#263238"/>
<path d="M640.32 36.16C637.77 28.26 620.69 31.1 624.02 41.43C627.35 51.76 642.87 44.07 640.32 36.16Z" fill="#263238"/>
<path d="M614.73 33C614.86 29.53 619.68 26.86 626.5 28.09C633.32 29.32 639.73 33.92 639.73 33.92C639.73 33.92 633 38 626.11 38.75C619.22 39.5 614.6 36.46 614.73 33Z" fill="#EBEBEB"/>
<path d="M639.73 33.9C636.19 33.9 632.66 33.8 629.13 33.69C625.6 33.58 622.06 33.4 618.53 33.12C622.07 33.12 625.61 33.21 629.14 33.32C632.67 33.43 636.21 33.61 639.73 33.9Z" fill="#263238"/>
<path d="M621.58 29.91C623.59 30.8715 625.485 32.0555 627.23 33.44C626.224 32.9681 625.249 32.4337 624.31 31.84C623.363 31.2504 622.452 30.606 621.58 29.91Z" fill="#263238"/>
<path d="M630.85 33.57C629.041 35.0361 627.08 36.3034 625 37.35C626.818 35.8821 628.79 34.6147 630.88 33.57H630.85Z" fill="#263238"/>
<path d="M631.88 31.62C632.889 32.1045 633.772 32.8165 634.46 33.7C633.955 33.4618 633.482 33.163 633.05 32.81C632.616 32.4592 632.223 32.06 631.88 31.62Z" fill="#263238"/>
<path d="M621.23 53.55C623.36 56.29 628.83 55.63 633.64 50.65C638.45 45.67 641 38.18 641 38.18C641 38.18 633.12 38.78 627.11 42.18C621.1 45.58 619.09 50.8 621.23 53.55Z" fill="#EBEBEB"/>
<path d="M641 38.18C638.12 40.18 635.32 42.4 632.51 44.55C629.7 46.7 626.95 48.92 624.26 51.21C627.14 49.21 629.94 47 632.74 44.85C635.54 42.7 638.27 40.48 641 38.18Z" fill="#263238"/>
<path d="M628.58 52C629.115 51.0286 629.592 50.0269 630.01 49C630.436 47.9702 630.796 46.9148 631.09 45.84C630.554 46.8105 630.076 47.8123 629.66 48.84C629.239 49.8713 628.878 50.9264 628.58 52Z" fill="#263238"/>
<path d="M634 43.64C631.66 43.5149 629.314 43.639 627 44.01C628.166 44.08 629.334 44.08 630.5 44.01C631.673 43.9528 632.841 43.8293 634 43.64Z" fill="#263238"/>
<path d="M635.93 44.63C636.197 44.1361 636.405 43.6125 636.55 43.07C636.698 42.5314 636.785 41.978 636.81 41.42C636.279 42.4099 635.978 43.5073 635.93 44.63Z" fill="#263238"/>
<path d="M640.32 36.16C639.755 36.3434 639.149 36.355 638.577 36.1935C638.006 36.032 637.495 35.7045 637.11 35.2526C636.725 34.8007 636.483 34.2446 636.414 33.6548C636.345 33.0651 636.453 32.4681 636.723 31.9396C636.994 31.411 637.415 30.9746 637.934 30.6857C638.453 30.3968 639.045 30.2683 639.637 30.3166C640.229 30.3648 640.793 30.5876 641.258 30.9567C641.724 31.3258 642.069 31.8246 642.25 32.39C642.493 33.1459 642.426 33.9671 642.064 34.6737C641.702 35.3804 641.075 35.9148 640.32 36.16Z" fill="#455A64"/>
<path d="M642.16 41.87C641.595 42.0526 640.99 42.0638 640.419 41.9021C639.848 41.7405 639.338 41.4132 638.953 40.9617C638.568 40.5102 638.326 39.9547 638.257 39.3655C638.188 38.7763 638.295 38.1798 638.564 37.6515C638.834 37.1231 639.255 36.6866 639.772 36.3971C640.29 36.1076 640.882 35.9782 641.474 36.0251C642.065 36.072 642.629 36.2932 643.095 36.6608C643.561 37.0283 643.907 37.5257 644.09 38.09C644.212 38.4649 644.258 38.8601 644.227 39.253C644.196 39.6459 644.087 40.0289 643.908 40.3799C643.729 40.7309 643.482 41.0432 643.182 41.2989C642.882 41.5546 642.535 41.7486 642.16 41.87Z" fill="#455A64"/>
<path d="M314.31 39.32C313.831 43.9131 312.084 48.2828 309.266 51.9413C306.448 55.5999 302.669 58.4034 298.35 60.039C294.031 61.6746 289.343 62.0779 284.809 61.204C280.274 60.3302 276.071 58.2134 272.67 55.09L260.2 56.92L266.44 46.14C265.013 42.6324 264.404 38.8457 264.659 35.0675C264.915 31.2894 266.028 27.6192 267.915 24.3357C269.801 21.0522 272.411 18.2418 275.546 16.1179C278.681 13.994 282.259 12.6126 286.008 12.0785C289.757 11.5444 293.578 11.8717 297.182 13.0355C300.785 14.1993 304.076 16.1691 306.804 18.7951C309.532 21.4212 311.626 24.6345 312.927 28.1909C314.227 31.7474 314.7 35.5534 314.31 39.32Z" fill="white"/>
<path d="M314.31 39.32C313.841 43.9108 312.11 48.2821 309.31 51.95C307.942 53.805 306.292 55.4347 304.42 56.78C302.589 58.1757 300.569 59.3037 298.42 60.13C296.27 60.9767 294.011 61.5154 291.71 61.73C290.56 61.8332 289.403 61.8566 288.25 61.8C287.092 61.7702 285.939 61.6499 284.8 61.44C280.204 60.5944 275.935 58.4856 272.47 55.35L272.76 55.44L260.31 57.35L259.4 57.49L259.86 56.69L266.06 45.89V46.32C264.597 42.7476 263.975 38.8867 264.242 35.0355C264.509 31.1844 265.658 27.4463 267.6 24.11C269.54 20.7842 272.206 17.94 275.4 15.79C278.589 13.6686 282.216 12.2966 286.011 11.7771C289.805 11.2575 293.668 11.6038 297.31 12.79C300.913 14.0158 304.196 16.0316 306.92 18.69C309.637 21.3417 311.715 24.5776 312.996 28.1521C314.276 31.7267 314.726 35.5459 314.31 39.32ZM314.31 39.32C314.714 35.5645 314.25 31.7663 312.953 28.2188C311.656 24.6712 309.561 21.4692 306.83 18.8599C304.099 16.2506 300.804 14.3038 297.201 13.1698C293.599 12.0359 289.783 11.7451 286.05 12.32C282.354 12.867 278.834 14.2561 275.76 16.38C272.713 18.5206 270.167 21.298 268.3 24.52C266.461 27.7491 265.378 31.3525 265.13 35.06C264.886 38.7926 265.488 42.5321 266.89 46L266.98 46.22L266.86 46.43L260.58 57.19L260.14 56.53L272.62 54.78H272.79L272.91 54.89C276.246 57.995 280.38 60.1106 284.85 61C285.964 61.2269 287.094 61.364 288.23 61.41C289.365 61.49 290.505 61.49 291.64 61.41C293.917 61.2265 296.157 60.7319 298.3 59.94C300.447 59.1582 302.469 58.0667 304.3 56.7C306.164 55.3656 307.816 53.7575 309.2 51.93C312.036 48.2799 313.805 43.9149 314.31 39.32Z" fill="#263238"/>
<path d="M277.34 48.35C277.321 48.0189 277.37 47.6874 277.484 47.3761C277.598 47.0648 277.775 46.7803 278.004 46.5402C278.233 46.3002 278.509 46.1097 278.814 45.9806C279.12 45.8516 279.448 45.7867 279.78 45.79C280.459 45.79 281.11 46.0597 281.59 46.5398C282.07 47.0199 282.34 47.671 282.34 48.35C282.34 49.0289 282.07 49.6801 281.59 50.1602C281.11 50.6403 280.459 50.91 279.78 50.91C279.448 50.9133 279.12 50.8484 278.814 50.7193C278.509 50.5903 278.233 50.3998 278.004 50.1597C277.775 49.9197 277.598 49.6352 277.484 49.3239C277.37 49.0125 277.321 48.681 277.34 48.35ZM278.34 42.44L277.76 22.6H281.76L281.18 42.44H278.34Z" fill="#FFC727"/>
<path d="M286.85 48.35C286.831 48.0198 286.879 47.6891 286.993 47.3785C287.107 47.0678 287.283 46.7838 287.511 46.5439C287.738 46.304 288.013 46.1133 288.317 45.9836C288.621 45.854 288.949 45.7881 289.28 45.79C289.959 45.79 290.61 46.0597 291.09 46.5398C291.57 47.0199 291.84 47.671 291.84 48.35C291.84 49.0289 291.57 49.6801 291.09 50.1602C290.61 50.6403 289.959 50.91 289.28 50.91C288.949 50.9119 288.621 50.846 288.317 50.7163C288.013 50.5867 287.738 50.396 287.511 50.1561C287.283 49.9162 287.107 49.6321 286.993 49.3215C286.879 49.0108 286.831 48.6802 286.85 48.35ZM287.85 42.44L287.3 22.6H291.3L290.72 42.44H287.85Z" fill="#FFC727"/>
<path d="M296.35 48.35C296.331 48.0189 296.38 47.6874 296.494 47.3761C296.608 47.0648 296.785 46.7803 297.014 46.5402C297.243 46.3002 297.518 46.1097 297.824 45.9806C298.129 45.8516 298.458 45.7867 298.79 45.79C299.469 45.79 300.12 46.0597 300.6 46.5398C301.08 47.0199 301.35 47.671 301.35 48.35C301.35 49.0289 301.08 49.6801 300.6 50.1602C300.12 50.6403 299.469 50.91 298.79 50.91C298.458 50.9133 298.129 50.8484 297.824 50.7193C297.518 50.5903 297.243 50.3998 297.014 50.1597C296.785 49.9197 296.608 49.6352 296.494 49.3239C296.38 49.0125 296.331 48.681 296.35 48.35ZM297.35 42.44L296.77 22.6H300.77L300.2 42.44H297.35Z" fill="#FFC727"/>
</g>
<defs>
<clipPath id="clip0_401_108">
<rect width="750" height="401" fill="white"/>
</clipPath>
</defs>
</svg>
